<svg xmlns="http://www.w3.org/2000/svg" version="1.1" xmlns:xlink="http://www.w3.org/1999/xlink" xmlns:svgjs="http://svgjs.com/svgjs" width="256" height="256" x="0" y="0" viewBox="0 0 512 512" style="enable-background:new 0 0 512 512" xml:space="preserve" class=""><defs><linearGradient id="a" gradientUnits="userSpaceOnUse" x1="0" x2="512" y1="256" y2="256"><stop offset="0" stop-color="#00f38d"></stop><stop offset="1" stop-color="#009eff"></stop></linearGradient></defs><g><linearGradient id="a" gradientUnits="userSpaceOnUse" x1="0" x2="512" y1="256" y2="256"><stop offset="0" stop-color="#00f38d"></stop><stop offset="1" stop-color="#009eff"></stop></linearGradient><path d="m512 256c0 141.386719-114.613281 256-256 256s-256-114.613281-256-256 114.613281-256 256-256 256 114.613281 256 256zm0 0" fill="url(&quot;#a&quot;)" data-original="url(#a)" class=""></path><g fill="#FFFFFF"><path d="m126.839844 387.050781c-7.269532 0-13.179688-5.914062-13.179688-13.179687v-172.152344h284.679688v47.609375l26.359375-29.136719v-78.28125c0-21.804687-17.738281-39.539062-39.539063-39.539062h-13.996094v-28.179688h-30v28.179688h-170.328124v-28.179688h-30v28.179688h-13.996094c-21.800782 0-39.539063 17.734375-39.539063 39.539062v231.960938c0 21.800781 17.738281 39.539062 39.539063 39.539062h156.597656l-27.691406-26.359375zm0-258.320312h13.996094v28.179687h30v-28.179687h170.328124v28.179687h30v-28.179687h13.996094c7.265625 0 13.179688 5.910156 13.179688 13.179687v29.808594h-284.679688v-29.808594c0-7.269531 5.910156-13.179687 13.179688-13.179687zm0 0" fill="#FFFFFF" data-original="#ffffff" class=""></path><path d="m295.539062 227.578125h26.359376v26.359375h-26.359376zm0 0" fill="#FFFFFF" data-original="#ffffff" class=""></path><path d="m348.257812 227.578125h26.359376v26.359375h-26.359376zm0 0" fill="#FFFFFF" data-original="#ffffff" class=""></path><path d="m137.382812 280.296875h26.359376v26.355469h-26.359376zm0 0" fill="#FFFFFF" data-original="#ffffff" class=""></path><path d="m190.101562 280.296875h26.359376v26.355469h-26.359376zm0 0" fill="#FFFFFF" data-original="#ffffff" class=""></path><path d="m242.820312 280.296875h26.359376v26.355469h-26.359376zm0 0" fill="#FFFFFF" data-original="#ffffff" class=""></path><path d="m295.539062 280.296875h26.359376v26.355469h-26.359376zm0 0" fill="#FFFFFF" data-original="#ffffff" class=""></path><path d="m137.382812 333.015625h26.359376v26.355469h-26.359376zm0 0" fill="#FFFFFF" data-original="#ffffff" class=""></path><path d="m190.101562 333.015625h26.359376v26.355469h-26.359376zm0 0" fill="#FFFFFF" data-original="#ffffff" class=""></path><path d="m319.867188 372.789062-46.332032-44.101562-20.683594 21.730469 68.699219 65.390625 104.425781-116.265625-22.320312-20.046875zm0 0" fill="#FFFFFF" data-original="#ffffff" class=""></path><path d="m137.382812 227.578125h26.359376v26.359375h-26.359376zm0 0" fill="#FFFFFF" data-original="#ffffff" class=""></path><path d="m190.101562 227.578125h26.359376v26.359375h-26.359376zm0 0" fill="#FFFFFF" data-original="#ffffff" class=""></path><path d="m242.820312 227.578125h26.359376v26.359375h-26.359376zm0 0" fill="#FFFFFF" data-original="#ffffff" class=""></path></g></g></svg>