<svg width="44" height="44" viewBox="0 0 44 44" fill="none" xmlns="http://www.w3.org/2000/svg">
<path fill-rule="evenodd" clip-rule="evenodd" d="M39.424 4.60533C35.2587 0.469333 29.304 0 22 0C14.696 0 8.712 0.469333 4.576 4.60533C0.440001 8.74133 0 14.7253 0 22.0293C0 29.3333 0.410668 35.288 4.576 39.4533C8.74133 43.6187 14.696 44 22 44C29.304 44 35.288 43.5893 39.424 39.424C43.56 35.2587 44 29.304 44 22C44 14.696 43.56 8.74133 39.424 4.60533Z" fill="url(#paint0_linear_62_31364)"/>
<path d="M16.2271 28.2364C15.7294 28.2364 13.7173 28.2351 13.2194 28.2351C12.8336 28.2351 12.4704 28.3859 12.1971 28.6597C11.9239 28.9331 11.7739 29.2957 11.7744 29.6809L11.7764 31.0625C11.7768 31.2866 11.9021 31.4918 12.1016 31.5944C12.9083 32.0094 13.8173 32.2287 14.7299 32.2287C15.6426 32.2287 16.5515 32.0094 17.3584 31.5944C17.5577 31.4918 17.6832 31.2866 17.6835 31.0625L17.6853 29.6821C17.686 29.3011 17.5358 28.9409 17.2628 28.6675C16.9892 28.3936 16.6117 28.2364 16.2271 28.2364Z" fill="white"/>
<path d="M14.7292 27.7123C15.9146 27.7123 16.8789 26.7479 16.8789 25.5627C16.8789 24.3774 15.9145 23.413 14.7292 23.413C13.544 23.413 12.5796 24.3774 12.5796 25.5627C12.5796 26.7479 13.5438 27.7123 14.7292 27.7123Z" fill="white"/>
<path d="M23.4768 28.2364C22.9791 28.2364 20.9668 28.2351 20.4689 28.2351C20.0831 28.2351 19.72 28.3859 19.4466 28.6597C19.1734 28.9331 19.0235 29.2957 19.0239 29.6809L19.026 31.0625C19.0263 31.2866 19.1516 31.4918 19.3511 31.5944C20.158 32.0094 21.0668 32.2287 21.9794 32.2287C22.8921 32.2287 23.801 32.0094 24.6079 31.5944C24.8072 31.4918 24.9327 31.2866 24.933 31.0625L24.935 29.6821C24.9355 29.3011 24.7855 28.9409 24.5124 28.6675C24.2388 28.3936 23.8614 28.2364 23.4768 28.2364Z" fill="white"/>
<path d="M19.8293 25.5627C19.8293 26.7481 20.7937 27.7123 21.979 27.7123C23.1644 27.7123 24.1286 26.7479 24.1286 25.5627C24.1286 24.3774 23.1644 23.413 21.979 23.413C20.7937 23.413 19.8293 24.3773 19.8293 25.5627Z" fill="white"/>
<path d="M31.8032 28.6675C31.5296 28.3936 31.1521 28.2364 30.7677 28.2364C30.2699 28.2364 28.2578 28.2351 27.7597 28.2351C27.3739 28.2351 27.0107 28.3859 26.7374 28.6597C26.4645 28.9331 26.3143 29.2957 26.3149 29.6809L26.3168 31.0625C26.3171 31.2866 26.4426 31.4918 26.6419 31.5944C27.4488 32.0094 28.3577 32.2287 29.2704 32.2287C30.183 32.2287 31.092 32.0094 31.8987 31.5944C32.0982 31.4918 32.2237 31.2866 32.224 31.0625L32.2259 29.682C32.2263 29.3011 32.0762 28.9409 31.8032 28.6675Z" fill="white"/>
<path d="M27.1199 25.5627C27.1199 26.7481 28.0843 27.7123 29.2695 27.7123C30.4549 27.7123 31.4193 26.7479 31.4193 25.5627C31.4193 24.3774 30.4549 23.413 29.2695 23.413C28.0843 23.413 27.1199 24.3773 27.1199 25.5627Z" fill="white"/>
<path d="M14.8502 13.7747H15.09V21.8432C15.09 22.1741 15.3583 22.4424 15.6892 22.4424H28.3114C28.6423 22.4424 28.9106 22.1741 28.9106 21.8432V13.7747H29.1501C29.4812 13.7747 29.7493 13.5064 29.7493 13.1755C29.7493 12.8446 29.4812 12.5763 29.1501 12.5763H22.5994V12.3706C22.5994 12.0397 22.3312 11.7714 22.0003 11.7714C21.6694 11.7714 21.4011 12.0397 21.4011 12.3706V12.5763H14.8502C14.5194 12.5763 14.2512 12.8446 14.2512 13.1755C14.2512 13.5064 14.5194 13.7747 14.8502 13.7747ZM17.3771 17.6783C17.608 17.4412 17.9872 17.4364 18.2243 17.6674L19.2834 18.6998L22.5223 15.5425C22.7551 15.3156 23.126 15.3156 23.3588 15.5425L24.9042 17.049L25.7761 16.1992C26.013 15.9682 26.3923 15.973 26.6233 16.2099C26.8542 16.447 26.8494 16.8263 26.6125 17.0573L25.3224 18.3148C25.0896 18.5416 24.7187 18.5416 24.4859 18.3148L22.9405 16.8083L19.7017 19.9656C19.5853 20.0789 19.4344 20.1357 19.2834 20.1357C19.1324 20.1357 18.9814 20.0789 18.8652 19.9656L17.3879 18.5255C17.151 18.2946 17.1461 17.9152 17.3771 17.6783Z" fill="white"/>
<defs>
<linearGradient id="paint0_linear_62_31364" x1="0" y1="0" x2="37.5" y2="44" gradientUnits="userSpaceOnUse">
<stop stop-color="#EF7272"/>
<stop offset="1" stop-color="#D82929"/>
</linearGradient>
</defs>
</svg>
