<svg width="44" height="44" viewBox="0 0 44 44" fill="none" xmlns="http://www.w3.org/2000/svg">
<path fill-rule="evenodd" clip-rule="evenodd" d="M39.424 4.60533C35.2587 0.469333 29.304 0 22 0C14.696 0 8.712 0.469333 4.576 4.60533C0.440001 8.74133 0 14.7253 0 22.0293C0 29.3333 0.410668 35.288 4.576 39.4533C8.74133 43.6187 14.696 44 22 44C29.304 44 35.288 43.5893 39.424 39.424C43.56 35.2587 44 29.304 44 22C44 14.696 43.56 8.74133 39.424 4.60533Z" fill="url(#paint0_linear_62_31373)"/>
<mask id="path-2-inside-1_62_31373" fill="white">
<path fill-rule="evenodd" clip-rule="evenodd" d="M15.5 12.5C14.6716 12.5 14 13.1716 14 14V17.0273H16C16.4142 17.0273 16.75 17.3631 16.75 17.7773C16.75 18.1916 16.4142 18.5273 16 18.5273H14V21.25H16C16.4142 21.25 16.75 21.5858 16.75 22C16.75 22.4142 16.4142 22.75 16 22.75H14V25.4727H16C16.4142 25.4727 16.75 25.8084 16.75 26.2227C16.75 26.6369 16.4142 26.9727 16 26.9727H14V30C14 30.8284 14.6716 31.5 15.5 31.5H28.5C29.3284 31.5 30 30.8284 30 30V14C30 13.1716 29.3284 12.5 28.5 12.5H15.5ZM22.5 21.2301C21.2228 21.2301 20.1875 20.1948 20.1875 18.9176C20.1875 17.6404 21.2228 16.6051 22.5 16.6051C23.7772 16.6051 24.8125 17.6404 24.8125 18.9176C24.8125 20.1948 23.7772 21.2301 22.5 21.2301ZM26.5 25.7375C26.5 23.7769 24.9106 22.1875 22.95 22.1875H22.05C20.0894 22.1875 18.5 23.7769 18.5 25.7375C18.5 26.0205 18.7295 26.25 19.0125 26.25H25.9875C26.2705 26.25 26.5 26.0205 26.5 25.7375Z"/>
</mask>
<path fill-rule="evenodd" clip-rule="evenodd" d="M15.5 12.5C14.6716 12.5 14 13.1716 14 14V17.0273H16C16.4142 17.0273 16.75 17.3631 16.75 17.7773C16.75 18.1916 16.4142 18.5273 16 18.5273H14V21.25H16C16.4142 21.25 16.75 21.5858 16.75 22C16.75 22.4142 16.4142 22.75 16 22.75H14V25.4727H16C16.4142 25.4727 16.75 25.8084 16.75 26.2227C16.75 26.6369 16.4142 26.9727 16 26.9727H14V30C14 30.8284 14.6716 31.5 15.5 31.5H28.5C29.3284 31.5 30 30.8284 30 30V14C30 13.1716 29.3284 12.5 28.5 12.5H15.5ZM22.5 21.2301C21.2228 21.2301 20.1875 20.1948 20.1875 18.9176C20.1875 17.6404 21.2228 16.6051 22.5 16.6051C23.7772 16.6051 24.8125 17.6404 24.8125 18.9176C24.8125 20.1948 23.7772 21.2301 22.5 21.2301ZM26.5 25.7375C26.5 23.7769 24.9106 22.1875 22.95 22.1875H22.05C20.0894 22.1875 18.5 23.7769 18.5 25.7375C18.5 26.0205 18.7295 26.25 19.0125 26.25H25.9875C26.2705 26.25 26.5 26.0205 26.5 25.7375Z" fill="white"/>
<path d="M14 17.0273H12.5V18.5273H14V17.0273ZM14 18.5273V17.0273H12.5V18.5273H14ZM14 21.25H12.5V22.75H14V21.25ZM14 22.75V21.25H12.5V22.75H14ZM14 25.4727H12.5V26.9727H14V25.4727ZM14 26.9727V25.4727H12.5V26.9727H14ZM15.5 14V14V11C13.8431 11 12.5 12.3431 12.5 14H15.5ZM15.5 17.0273V14H12.5V17.0273H15.5ZM16 15.5273H14V18.5273H16V15.5273ZM18.25 17.7773C18.25 16.5347 17.2426 15.5273 16 15.5273V18.5273C15.5858 18.5273 15.25 18.1916 15.25 17.7773H18.25ZM16 20.0273C17.2426 20.0273 18.25 19.02 18.25 17.7773H15.25C15.25 17.3631 15.5858 17.0273 16 17.0273V20.0273ZM14 20.0273H16V17.0273H14V20.0273ZM15.5 21.25V18.5273H12.5V21.25H15.5ZM16 19.75H14V22.75H16V19.75ZM18.25 22C18.25 20.7574 17.2426 19.75 16 19.75V22.75C15.5858 22.75 15.25 22.4142 15.25 22H18.25ZM16 24.25C17.2426 24.25 18.25 23.2426 18.25 22H15.25C15.25 21.5858 15.5858 21.25 16 21.25V24.25ZM14 24.25H16V21.25H14V24.25ZM15.5 25.4727V22.75H12.5V25.4727H15.5ZM16 23.9727H14V26.9727H16V23.9727ZM18.25 26.2227C18.25 24.98 17.2426 23.9727 16 23.9727V26.9727C15.5858 26.9727 15.25 26.6369 15.25 26.2227H18.25ZM16 28.4727C17.2426 28.4727 18.25 27.4653 18.25 26.2227H15.25C15.25 25.8084 15.5858 25.4727 16 25.4727V28.4727ZM14 28.4727H16V25.4727H14V28.4727ZM15.5 30V26.9727H12.5V30H15.5ZM15.5 30H12.5C12.5 31.6569 13.8431 33 15.5 33V30ZM28.5 30H15.5V33H28.5V30ZM28.5 30V33C30.1569 33 31.5 31.6569 31.5 30H28.5ZM28.5 14V30H31.5V14H28.5ZM28.5 14V14H31.5C31.5 12.3431 30.1569 11 28.5 11V14ZM15.5 14H28.5V11H15.5V14ZM18.6875 18.9176C18.6875 21.0232 20.3944 22.7301 22.5 22.7301V19.7301C22.0513 19.7301 21.6875 19.3663 21.6875 18.9176H18.6875ZM22.5 15.1051C20.3944 15.1051 18.6875 16.812 18.6875 18.9176H21.6875C21.6875 18.4689 22.0513 18.1051 22.5 18.1051V15.1051ZM26.3125 18.9176C26.3125 16.812 24.6056 15.1051 22.5 15.1051V18.1051C22.9487 18.1051 23.3125 18.4689 23.3125 18.9176H26.3125ZM22.5 22.7301C24.6056 22.7301 26.3125 21.0232 26.3125 18.9176H23.3125C23.3125 19.3663 22.9487 19.7301 22.5 19.7301V22.7301ZM22.95 23.6875C24.0822 23.6875 25 24.6053 25 25.7375H28C28 22.9485 25.739 20.6875 22.95 20.6875V23.6875ZM22.05 23.6875H22.95V20.6875H22.05V23.6875ZM20 25.7375C20 24.6053 20.9178 23.6875 22.05 23.6875V20.6875C19.261 20.6875 17 22.9485 17 25.7375H20ZM19.0125 24.75C19.5579 24.75 20 25.1921 20 25.7375H17C17 26.849 17.901 27.75 19.0125 27.75V24.75ZM25.9875 24.75H19.0125V27.75H25.9875V24.75ZM25 25.7375C25 25.1921 25.4421 24.75 25.9875 24.75V27.75C27.099 27.75 28 26.849 28 25.7375H25Z" fill="white" mask="url(#path-2-inside-1_62_31373)"/>
<defs>
<linearGradient id="paint0_linear_62_31373" x1="22" y1="0" x2="22" y2="44" gradientUnits="userSpaceOnUse">
<stop stop-color="#9B51E0" stop-opacity="0.78"/>
<stop offset="1" stop-color="#9B51E0"/>
</linearGradient>
</defs>
</svg>
