<svg width="44" height="44" viewBox="0 0 44 44" fill="none" xmlns="http://www.w3.org/2000/svg">
<path fill-rule="evenodd" clip-rule="evenodd" d="M39.424 4.60533C35.2587 0.469333 29.304 0 22 0C14.696 0 8.712 0.469333 4.576 4.60533C0.440001 8.74133 0 14.7253 0 22.0293C0 29.3333 0.410668 35.288 4.576 39.4533C8.74133 43.6187 14.696 44 22 44C29.304 44 35.288 43.5893 39.424 39.424C43.56 35.2587 44 29.304 44 22C44 14.696 43.56 8.74133 39.424 4.60533Z" fill="url(#paint0_linear_383_46921)"/>
<path fill-rule="evenodd" clip-rule="evenodd" d="M15.1943 12.1369C14.3659 12.1369 13.6943 12.8085 13.6943 13.6369V30.3631C13.6943 31.1915 14.3659 31.8631 15.1943 31.8631H28.8059C29.6343 31.8631 30.3059 31.1915 30.3059 30.3631V13.6369C30.3059 12.8085 29.6343 12.1369 28.8059 12.1369H15.1943ZM20.0222 17.1433C20.0222 18.2355 20.9077 19.121 22 19.121C23.0922 19.121 23.9777 18.2355 23.9777 17.1433C23.9777 16.051 23.0922 15.1656 22 15.1656C20.9077 15.1656 20.0222 16.051 20.0222 17.1433ZM21.6153 19.7306H22.385C24.0618 19.7306 25.421 21.0899 25.421 22.7667C25.421 23.0087 25.2248 23.205 24.9827 23.205H19.0175C18.7755 23.205 18.5792 23.0087 18.5792 22.7667C18.5792 21.0899 19.9385 19.7306 21.6153 19.7306ZM17.3541 25.3423C17.0503 25.3423 16.8041 25.5885 16.8041 25.8923C16.8041 26.1961 17.0503 26.4423 17.3541 26.4423H26.6462C26.9499 26.4423 27.1962 26.1961 27.1962 25.8923C27.1962 25.5885 26.9499 25.3423 26.6462 25.3423H17.3541ZM19.065 28.397H24.9353C25.239 28.397 25.4853 28.1508 25.4853 27.847C25.4853 27.5433 25.239 27.297 24.9353 27.297H19.065C18.7612 27.297 18.515 27.5433 18.515 27.847C18.515 28.1508 18.7612 28.397 19.065 28.397Z" fill="white"/>
<defs>
<linearGradient id="paint0_linear_383_46921" x1="0" y1="0" x2="38" y2="42" gradientUnits="userSpaceOnUse">
<stop stop-color="#2AE775"/>
<stop offset="1" stop-color="#06C051"/>
</linearGradient>
</defs>
</svg>
