<svg width="32" height="32" viewBox="0 0 32 32" fill="none" xmlns="http://www.w3.org/2000/svg">
<path fill-rule="evenodd" clip-rule="evenodd" d="M28.672 3.34933C25.6427 0.341333 21.312 0 16 0C10.688 0 6.336 0.341333 3.328 3.34933C0.320001 6.35733 0 10.7093 0 16.0213C0 21.3333 0.298668 25.664 3.328 28.6933C6.35733 31.7227 10.688 32 16 32C21.312 32 25.664 31.7013 28.672 28.672C31.68 25.6427 32 21.312 32 16C32 10.688 31.68 6.35733 28.672 3.34933Z" fill="#219653"/>
<path fill-rule="evenodd" clip-rule="evenodd" d="M22.8541 11.7297C22.8543 11.7982 22.8403 11.866 22.8129 11.9287C22.788 11.9926 22.7507 12.0509 22.7031 12.1003L20.967 13.8364C20.8685 13.9315 20.7369 13.9847 20.5999 13.9847C20.463 13.9847 20.3313 13.9315 20.2328 13.8364C20.1838 13.7879 20.145 13.7302 20.1185 13.6666C20.0919 13.603 20.0783 13.5347 20.0783 13.4658C20.0783 13.3969 20.0919 13.3287 20.1185 13.2651C20.145 13.2015 20.1838 13.1438 20.2328 13.0953L21.07 12.2512H18.8535C18.7158 12.2495 18.5842 12.194 18.4867 12.0965C18.3893 11.9991 18.3338 11.8675 18.332 11.7297C18.3338 11.592 18.3893 11.4603 18.4867 11.3629C18.5842 11.2655 18.7158 11.21 18.8535 11.2082H21.07L20.2259 10.3573C20.1772 10.3094 20.1385 10.2523 20.112 10.1893C20.0856 10.1262 20.072 10.0586 20.072 9.99021C20.072 9.92186 20.0856 9.85419 20.112 9.79116C20.1385 9.72812 20.1772 9.67099 20.2259 9.62309C20.2738 9.57433 20.331 9.5356 20.394 9.50917C20.457 9.48273 20.5247 9.46912 20.5931 9.46912C20.6614 9.46912 20.7291 9.48273 20.7921 9.50917C20.8552 9.5356 20.9123 9.57433 20.9602 9.62309L22.6963 11.3592C22.7428 11.4068 22.78 11.4626 22.8061 11.5239C22.8353 11.5887 22.8516 11.6586 22.8541 11.7297Z" fill="white"/>
<path fill-rule="evenodd" clip-rule="evenodd" d="M21.4138 14.5845C21.1481 14.7826 20.8197 14.8778 20.4892 14.8526C20.1587 14.8274 19.8486 14.6834 19.616 14.4473C19.4456 14.2772 19.3229 14.0653 19.2603 13.8329C19.1976 13.6004 19.1973 13.3556 19.2592 13.1229H18.8612C18.4972 13.1229 18.1481 12.9783 17.8907 12.721C17.6333 12.4636 17.4888 12.1145 17.4888 11.7505C17.4872 11.5287 17.5395 11.3098 17.6411 11.1126C17.7427 10.9155 17.8905 10.7458 18.072 10.6183C17.2387 10.2189 16.3268 10.0102 15.4027 10.0076C14.5803 10.0076 13.7659 10.1697 13.0062 10.4846C12.2465 10.7995 11.5563 11.2611 10.9751 11.843C10.3939 12.4248 9.93304 13.1155 9.61894 13.8756C9.30484 14.6357 9.14363 15.4502 9.14454 16.2726C9.14454 17.9324 9.80387 19.5242 10.9775 20.6978C12.1511 21.8714 13.7429 22.5308 15.4027 22.5308C17.0613 22.5289 18.6513 21.8688 19.8235 20.6954C20.9956 19.5219 21.654 17.9312 21.654 16.2726C21.6507 15.7016 21.5699 15.1338 21.4138 14.5845ZM15.4598 12.6878C15.6403 12.6878 15.8209 12.8684 15.8209 13.049V13.4703H16.9044C17.085 13.4703 17.2655 13.6509 17.2655 13.8315V13.9518C17.2655 14.1324 17.085 14.313 16.9044 14.313H14.5569C14.3763 14.313 14.1957 14.4334 14.0753 14.5538C13.8948 14.7343 13.8346 14.9149 13.8346 15.0955C13.8346 15.2761 13.955 15.4567 14.0753 15.577C14.1957 15.6974 14.3763 15.8178 14.5569 15.8178H16.1821C16.6034 15.8178 17.0248 15.9382 17.3257 16.2993C17.6267 16.5401 17.8073 16.9615 17.8073 17.3828C17.8073 17.8042 17.6869 18.1653 17.4461 18.4663C17.2053 18.7672 16.784 18.9478 16.3627 18.9478H15.9413V19.4895C15.9413 19.6701 15.7607 19.8507 15.5801 19.8507H15.3996C15.219 19.8507 15.0384 19.6701 15.0384 19.4895V18.9478H13.7142C13.5336 18.9478 13.353 18.7672 13.353 18.5867V18.4061C13.353 18.2255 13.4734 18.1051 13.654 18.1051H16.1821C16.4228 18.1051 16.6034 18.0449 16.7238 17.9847C16.9044 17.8042 16.9646 17.6236 16.9646 17.443C16.9646 17.2022 16.8442 17.0217 16.7238 16.9013C16.5432 16.7207 16.3627 16.6605 16.1821 16.6605H14.5569C14.1957 16.6605 13.7744 16.4799 13.4734 16.179C13.1724 15.9382 12.9919 15.5168 12.9919 15.0955C12.9919 14.6741 13.1724 14.2528 13.4734 14.012C13.7142 13.7111 14.1355 13.5305 14.5569 13.5305H14.9782V13.049C14.9782 12.8684 15.0986 12.6878 15.2792 12.6878H15.4598Z" fill="white"/>
</svg>
