<svg width="210" height="61" viewBox="0 0 210 61" fill="none" xmlns="http://www.w3.org/2000/svg">
<g filter="url(#filter0_d_24_18373)">
<path d="M19.375 23.8906V44H12.6016V18.6406H18.9531L19.375 23.8906ZM18.4375 30.4297H16.5625C16.5625 28.6641 16.7734 27.0391 17.1953 25.5547C17.6328 24.0547 18.2656 22.7578 19.0938 21.6641C19.9375 20.5547 20.9766 19.6953 22.2109 19.0859C23.4453 18.4766 24.875 18.1719 26.5 18.1719C27.625 18.1719 28.6562 18.3438 29.5938 18.6875C30.5312 19.0156 31.3359 19.5391 32.0078 20.2578C32.6953 20.9609 33.2266 21.8828 33.6016 23.0234C33.9766 24.1484 34.1641 25.5 34.1641 27.0781V44H27.4141V27.8281C27.4141 26.6719 27.2578 25.7812 26.9453 25.1562C26.6328 24.5312 26.1875 24.0938 25.6094 23.8438C25.0469 23.5938 24.3672 23.4688 23.5703 23.4688C22.6953 23.4688 21.9297 23.6484 21.2734 24.0078C20.6328 24.3672 20.1016 24.8672 19.6797 25.5078C19.2578 26.1328 18.9453 26.8672 18.7422 27.7109C18.5391 28.5547 18.4375 29.4609 18.4375 30.4297ZM33.5312 29.6562L31.1172 29.9609C31.1172 28.3047 31.3203 26.7656 31.7266 25.3438C32.1484 23.9219 32.7656 22.6719 33.5781 21.5938C34.4062 20.5156 35.4297 19.6797 36.6484 19.0859C37.8672 18.4766 39.2734 18.1719 40.8672 18.1719C42.0859 18.1719 43.1953 18.3516 44.1953 18.7109C45.1953 19.0547 46.0469 19.6094 46.75 20.375C47.4688 21.125 48.0156 22.1094 48.3906 23.3281C48.7812 24.5469 48.9766 26.0391 48.9766 27.8047V44H42.2031V27.8047C42.2031 26.6328 42.0469 25.7422 41.7344 25.1328C41.4375 24.5078 41 24.0781 40.4219 23.8438C39.8594 23.5938 39.1875 23.4688 38.4062 23.4688C37.5938 23.4688 36.8828 23.6328 36.2734 23.9609C35.6641 24.2734 35.1562 24.7109 34.75 25.2734C34.3438 25.8359 34.0391 26.4922 33.8359 27.2422C33.6328 27.9766 33.5312 28.7812 33.5312 29.6562Z" fill="#D42027"/>
<path d="M72.3906 35.0703C72.3906 34.4609 72.2969 33.9141 72.1094 33.4297C71.9375 32.9297 71.6094 32.4766 71.125 32.0703C70.6406 31.6484 69.9609 31.2344 69.0859 30.8281C68.2109 30.4219 67.0781 30 65.6875 29.5625C64.1406 29.0625 62.6719 28.5 61.2812 27.875C59.9062 27.25 58.6875 26.5234 57.625 25.6953C56.5781 24.8516 55.75 23.875 55.1406 22.7656C54.5469 21.6562 54.25 20.3672 54.25 18.8984C54.25 17.4766 54.5625 16.1875 55.1875 15.0312C55.8125 13.8594 56.6875 12.8594 57.8125 12.0312C58.9375 11.1875 60.2656 10.5391 61.7969 10.0859C63.3438 9.63281 65.0391 9.40625 66.8828 9.40625C69.3984 9.40625 71.5938 9.85937 73.4688 10.7656C75.3438 11.6719 76.7969 12.9141 77.8281 14.4922C78.875 16.0703 79.3984 17.875 79.3984 19.9062H72.4141C72.4141 18.9062 72.2031 18.0312 71.7812 17.2812C71.375 16.5156 70.75 15.9141 69.9062 15.4766C69.0781 15.0391 68.0312 14.8203 66.7656 14.8203C65.5469 14.8203 64.5312 15.0078 63.7188 15.3828C62.9062 15.7422 62.2969 16.2344 61.8906 16.8594C61.4844 17.4688 61.2812 18.1562 61.2812 18.9219C61.2812 19.5 61.4219 20.0234 61.7031 20.4922C62 20.9609 62.4375 21.3984 63.0156 21.8047C63.5938 22.2109 64.3047 22.5938 65.1484 22.9531C65.9922 23.3125 66.9688 23.6641 68.0781 24.0078C69.9375 24.5703 71.5703 25.2031 72.9766 25.9062C74.3984 26.6094 75.5859 27.3984 76.5391 28.2734C77.4922 29.1484 78.2109 30.1406 78.6953 31.25C79.1797 32.3594 79.4219 33.6172 79.4219 35.0234C79.4219 36.5078 79.1328 37.8359 78.5547 39.0078C77.9766 40.1797 77.1406 41.1719 76.0469 41.9844C74.9531 42.7969 73.6484 43.4141 72.1328 43.8359C70.6172 44.2578 68.9219 44.4688 67.0469 44.4688C65.3594 44.4688 63.6953 44.25 62.0547 43.8125C60.4141 43.3594 58.9219 42.6797 57.5781 41.7734C56.25 40.8672 55.1875 39.7109 54.3906 38.3047C53.5938 36.8984 53.1953 35.2344 53.1953 33.3125H60.25C60.25 34.375 60.4141 35.2734 60.7422 36.0078C61.0703 36.7422 61.5312 37.3359 62.125 37.7891C62.7344 38.2422 63.4531 38.5703 64.2812 38.7734C65.125 38.9766 66.0469 39.0781 67.0469 39.0781C68.2656 39.0781 69.2656 38.9062 70.0469 38.5625C70.8438 38.2188 71.4297 37.7422 71.8047 37.1328C72.1953 36.5234 72.3906 35.8359 72.3906 35.0703ZM94.2578 39.1953C95.0859 39.1953 95.8203 39.0391 96.4609 38.7266C97.1016 38.3984 97.6016 37.9453 97.9609 37.3672C98.3359 36.7734 98.5312 36.0781 98.5469 35.2812H104.898C104.883 37.0625 104.406 38.6484 103.469 40.0391C102.531 41.4141 101.273 42.5 99.6953 43.2969C98.1172 44.0781 96.3516 44.4688 94.3984 44.4688C92.4297 44.4688 90.7109 44.1406 89.2422 43.4844C87.7891 42.8281 86.5781 41.9219 85.6094 40.7656C84.6406 39.5938 83.9141 38.2344 83.4297 36.6875C82.9453 35.125 82.7031 33.4531 82.7031 31.6719V30.9922C82.7031 29.1953 82.9453 27.5234 83.4297 25.9766C83.9141 24.4141 84.6406 23.0547 85.6094 21.8984C86.5781 20.7266 87.7891 19.8125 89.2422 19.1562C90.6953 18.5 92.3984 18.1719 94.3516 18.1719C96.4297 18.1719 98.25 18.5703 99.8125 19.3672C101.391 20.1641 102.625 21.3047 103.516 22.7891C104.422 24.2578 104.883 26 104.898 28.0156H98.5469C98.5312 27.1719 98.3516 26.4062 98.0078 25.7188C97.6797 25.0312 97.1953 24.4844 96.5547 24.0781C95.9297 23.6562 95.1562 23.4453 94.2344 23.4453C93.25 23.4453 92.4453 23.6562 91.8203 24.0781C91.1953 24.4844 90.7109 25.0469 90.3672 25.7656C90.0234 26.4688 89.7812 27.2734 89.6406 28.1797C89.5156 29.0703 89.4531 30.0078 89.4531 30.9922V31.6719C89.4531 32.6562 89.5156 33.6016 89.6406 34.5078C89.7656 35.4141 90 36.2188 90.3438 36.9219C90.7031 37.625 91.1953 38.1797 91.8203 38.5859C92.4453 38.9922 93.2578 39.1953 94.2578 39.1953ZM115.398 8V44H108.648V8H115.398ZM114.438 30.4297H112.586C112.602 28.6641 112.836 27.0391 113.289 25.5547C113.742 24.0547 114.391 22.7578 115.234 21.6641C116.078 20.5547 117.086 19.6953 118.258 19.0859C119.445 18.4766 120.758 18.1719 122.195 18.1719C123.445 18.1719 124.578 18.3516 125.594 18.7109C126.625 19.0547 127.508 19.6172 128.242 20.3984C128.992 21.1641 129.57 22.1719 129.977 23.4219C130.383 24.6719 130.586 26.1875 130.586 27.9688V44H123.789V27.9219C123.789 26.7969 123.625 25.9141 123.297 25.2734C122.984 24.6172 122.523 24.1562 121.914 23.8906C121.32 23.6094 120.586 23.4688 119.711 23.4688C118.742 23.4688 117.914 23.6484 117.227 24.0078C116.555 24.3672 116.016 24.8672 115.609 25.5078C115.203 26.1328 114.906 26.8672 114.719 27.7109C114.531 28.5547 114.438 29.4609 114.438 30.4297ZM134.641 31.5781V31.0859C134.641 29.2266 134.906 27.5156 135.438 25.9531C135.969 24.375 136.742 23.0078 137.758 21.8516C138.773 20.6953 140.023 19.7969 141.508 19.1562C142.992 18.5 144.695 18.1719 146.617 18.1719C148.539 18.1719 150.25 18.5 151.75 19.1562C153.25 19.7969 154.508 20.6953 155.523 21.8516C156.555 23.0078 157.336 24.375 157.867 25.9531C158.398 27.5156 158.664 29.2266 158.664 31.0859V31.5781C158.664 33.4219 158.398 35.1328 157.867 36.7109C157.336 38.2734 156.555 39.6406 155.523 40.8125C154.508 41.9688 153.258 42.8672 151.773 43.5078C150.289 44.1484 148.586 44.4688 146.664 44.4688C144.742 44.4688 143.031 44.1484 141.531 43.5078C140.047 42.8672 138.789 41.9688 137.758 40.8125C136.742 39.6406 135.969 38.2734 135.438 36.7109C134.906 35.1328 134.641 33.4219 134.641 31.5781ZM141.391 31.0859V31.5781C141.391 32.6406 141.484 33.6328 141.672 34.5547C141.859 35.4766 142.156 36.2891 142.562 36.9922C142.984 37.6797 143.531 38.2188 144.203 38.6094C144.875 39 145.695 39.1953 146.664 39.1953C147.602 39.1953 148.406 39 149.078 38.6094C149.75 38.2188 150.289 37.6797 150.695 36.9922C151.102 36.2891 151.398 35.4766 151.586 34.5547C151.789 33.6328 151.891 32.6406 151.891 31.5781V31.0859C151.891 30.0547 151.789 29.0859 151.586 28.1797C151.398 27.2578 151.094 26.4453 150.672 25.7422C150.266 25.0234 149.727 24.4609 149.055 24.0547C148.383 23.6484 147.57 23.4453 146.617 23.4453C145.664 23.4453 144.852 23.6484 144.18 24.0547C143.523 24.4609 142.984 25.0234 142.562 25.7422C142.156 26.4453 141.859 27.2578 141.672 28.1797C141.484 29.0859 141.391 30.0547 141.391 31.0859ZM161.734 31.5781V31.0859C161.734 29.2266 162 27.5156 162.531 25.9531C163.062 24.375 163.836 23.0078 164.852 21.8516C165.867 20.6953 167.117 19.7969 168.602 19.1562C170.086 18.5 171.789 18.1719 173.711 18.1719C175.633 18.1719 177.344 18.5 178.844 19.1562C180.344 19.7969 181.602 20.6953 182.617 21.8516C183.648 23.0078 184.43 24.375 184.961 25.9531C185.492 27.5156 185.758 29.2266 185.758 31.0859V31.5781C185.758 33.4219 185.492 35.1328 184.961 36.7109C184.43 38.2734 183.648 39.6406 182.617 40.8125C181.602 41.9688 180.352 42.8672 178.867 43.5078C177.383 44.1484 175.68 44.4688 173.758 44.4688C171.836 44.4688 170.125 44.1484 168.625 43.5078C167.141 42.8672 165.883 41.9688 164.852 40.8125C163.836 39.6406 163.062 38.2734 162.531 36.7109C162 35.1328 161.734 33.4219 161.734 31.5781ZM168.484 31.0859V31.5781C168.484 32.6406 168.578 33.6328 168.766 34.5547C168.953 35.4766 169.25 36.2891 169.656 36.9922C170.078 37.6797 170.625 38.2188 171.297 38.6094C171.969 39 172.789 39.1953 173.758 39.1953C174.695 39.1953 175.5 39 176.172 38.6094C176.844 38.2188 177.383 37.6797 177.789 36.9922C178.195 36.2891 178.492 35.4766 178.68 34.5547C178.883 33.6328 178.984 32.6406 178.984 31.5781V31.0859C178.984 30.0547 178.883 29.0859 178.68 28.1797C178.492 27.2578 178.188 26.4453 177.766 25.7422C177.359 25.0234 176.82 24.4609 176.148 24.0547C175.477 23.6484 174.664 23.4453 173.711 23.4453C172.758 23.4453 171.945 23.6484 171.273 24.0547C170.617 24.4609 170.078 25.0234 169.656 25.7422C169.25 26.4453 168.953 27.2578 168.766 28.1797C168.578 29.0859 168.484 30.0547 168.484 31.0859ZM197.031 8V44H190.258V8H197.031Z" fill="#0E2546"/>
<path d="M19.375 23.8906H20.375V23.8505L20.3718 23.8105L19.375 23.8906ZM19.375 44V45H20.375V44H19.375ZM12.6016 44H11.6016V45H12.6016V44ZM12.6016 18.6406V17.6406H11.6016V18.6406H12.6016ZM18.9531 18.6406L19.9499 18.5605L19.876 17.6406H18.9531V18.6406ZM18.4375 30.4297V31.4297H19.4375V30.4297H18.4375ZM16.5625 30.4297H15.5625V31.4297H16.5625V30.4297ZM17.1953 25.5547L16.2353 25.2747L16.2334 25.2813L17.1953 25.5547ZM19.0938 21.6641L18.2978 21.0587L18.2965 21.0604L19.0938 21.6641ZM29.5938 18.6875L29.2495 19.6264L29.2564 19.6289L29.2634 19.6314L29.5938 18.6875ZM32.0078 20.2578L31.2773 20.9407L31.285 20.9489L31.2928 20.9569L32.0078 20.2578ZM33.6016 23.0234L32.6516 23.3358L32.6529 23.3397L33.6016 23.0234ZM34.1641 44V45H35.1641V44H34.1641ZM27.4141 44H26.4141V45H27.4141V44ZM25.6094 23.8438L25.2032 24.7576L25.2125 24.7616L25.6094 23.8438ZM21.2734 24.0078L20.7931 23.1307L20.7842 23.1357L21.2734 24.0078ZM19.6797 25.5078L20.5086 26.0673L20.5149 26.0578L19.6797 25.5078ZM33.5312 29.6562L33.6565 30.6484L34.5312 30.538V29.6562H33.5312ZM31.1172 29.9609H30.1172V31.0951L31.2424 30.9531L31.1172 29.9609ZM31.7266 25.3438L30.7678 25.0593L30.765 25.069L31.7266 25.3438ZM33.5781 21.5938L32.785 20.9846L32.7795 20.9919L33.5781 21.5938ZM36.6484 19.0859L37.0864 19.985L37.0957 19.9804L36.6484 19.0859ZM44.1953 18.7109L43.8571 19.6521L43.8702 19.6566L44.1953 18.7109ZM46.75 20.375L46.0135 21.0514L46.0207 21.0592L46.028 21.0669L46.75 20.375ZM48.3906 23.3281L47.4348 23.6222L47.4383 23.6333L48.3906 23.3281ZM48.9766 44V45H49.9766V44H48.9766ZM42.2031 44H41.2031V45H42.2031V44ZM41.7344 25.1328L40.8311 25.5619L40.8376 25.5756L40.8446 25.5891L41.7344 25.1328ZM40.4219 23.8438L40.0157 24.7576L40.0308 24.7643L40.0462 24.7705L40.4219 23.8438ZM36.2734 23.9609L36.7298 24.8508L36.7387 24.8462L36.7475 24.8414L36.2734 23.9609ZM33.8359 27.2422L34.7998 27.5088L34.8012 27.5036L33.8359 27.2422ZM18.375 23.8906V44H20.375V23.8906H18.375ZM19.375 43H12.6016V45H19.375V43ZM13.6016 44V18.6406H11.6016V44H13.6016ZM12.6016 19.6406H18.9531V17.6406H12.6016V19.6406ZM17.9563 18.7207L18.3782 23.9707L20.3718 23.8105L19.9499 18.5605L17.9563 18.7207ZM18.4375 29.4297H16.5625V31.4297H18.4375V29.4297ZM17.5625 30.4297C17.5625 28.7435 17.7639 27.2118 18.1572 25.8281L16.2334 25.2813C15.7829 26.8663 15.5625 28.5846 15.5625 30.4297H17.5625ZM18.1553 25.8347C18.5634 24.4355 19.1459 23.2519 19.891 22.2677L18.2965 21.0604C17.3854 22.2638 16.7022 23.6739 16.2353 25.2747L18.1553 25.8347ZM19.8897 22.2694C20.641 21.2816 21.5597 20.5226 22.6536 19.9826L21.7683 18.1893C20.3934 18.868 19.234 19.8278 18.2978 21.0587L19.8897 22.2694ZM22.6536 19.9826C23.7276 19.4524 25.001 19.1719 26.5 19.1719V17.1719C24.749 17.1719 23.163 17.5007 21.7683 18.1893L22.6536 19.9826ZM26.5 19.1719C27.5223 19.1719 28.4353 19.3278 29.2495 19.6264L29.938 17.7486C28.8772 17.3597 27.7277 17.1719 26.5 17.1719V19.1719ZM29.2634 19.6314C30.0499 19.9066 30.7169 20.3412 31.2773 20.9407L32.7383 19.5749C31.955 18.737 31.0126 18.1246 29.9241 17.7436L29.2634 19.6314ZM31.2928 20.9569C31.8524 21.5293 32.314 22.3088 32.6516 23.3358L34.5515 22.7111C34.1392 21.4568 33.5382 20.3926 32.7228 19.5587L31.2928 20.9569ZM32.6529 23.3397C32.9848 24.3353 33.1641 25.5742 33.1641 27.0781H35.1641C35.1641 25.4258 34.9684 23.9616 34.5502 22.7072L32.6529 23.3397ZM33.1641 27.0781V44H35.1641V27.0781H33.1641ZM34.1641 43H27.4141V45H34.1641V43ZM28.4141 44V27.8281H26.4141V44H28.4141ZM28.4141 27.8281C28.4141 26.6061 28.2529 25.5353 27.8397 24.709L26.0509 25.6035C26.2627 26.0272 26.4141 26.7377 26.4141 27.8281H28.4141ZM27.8397 24.709C27.4343 23.8981 26.8245 23.2797 26.0063 22.9259L25.2125 24.7616C25.5505 24.9078 25.8314 25.1644 26.0509 25.6035L27.8397 24.709ZM26.0155 22.9299C25.2934 22.609 24.4676 22.4688 23.5703 22.4688V24.4688C24.2668 24.4688 24.8003 24.5785 25.2032 24.7576L26.0155 22.9299ZM23.5703 22.4688C22.556 22.4688 21.6198 22.678 20.7931 23.1307L21.7538 24.8849C22.2396 24.6189 22.8346 24.4688 23.5703 24.4688V22.4688ZM20.7842 23.1357C19.9979 23.5767 19.3503 24.1898 18.8445 24.9578L20.5149 26.0578C20.8528 25.5446 21.2677 25.1576 21.7627 24.88L20.7842 23.1357ZM18.8508 24.9483C18.3528 25.6861 17.9969 26.5343 17.77 27.4769L19.7144 27.945C19.8937 27.2001 20.1628 26.5795 20.5085 26.0673L18.8508 24.9483ZM17.77 27.4769C17.5464 28.4056 17.4375 29.3911 17.4375 30.4297H19.4375C19.4375 29.5308 19.5317 28.7038 19.7144 27.945L17.77 27.4769ZM33.406 28.6641L30.992 28.9688L31.2424 30.9531L33.6565 30.6484L33.406 28.6641ZM32.1172 29.9609C32.1172 28.3866 32.3102 26.941 32.6881 25.6185L30.765 25.069C30.3304 26.5902 30.1172 28.2227 30.1172 29.9609H32.1172ZM32.6853 25.6282C33.0765 24.3096 33.6429 23.1694 34.3767 22.1956L32.7795 20.9919C31.8884 22.1744 31.2204 23.5342 30.7679 25.0593L32.6853 25.6282ZM34.3712 22.2029C35.1052 21.2472 36.0073 20.5107 37.0864 19.9849L36.2105 18.1869C34.8521 18.8487 33.7073 19.784 32.7851 20.9846L34.3712 22.2029ZM37.0957 19.9804C38.1538 19.4513 39.4024 19.1719 40.8672 19.1719V17.1719C39.1445 17.1719 37.5806 17.5018 36.2012 18.1915L37.0957 19.9804ZM40.8672 19.1719C41.9873 19.1719 42.9803 19.3369 43.8571 19.652L44.5335 17.7699C43.4104 17.3662 42.1845 17.1719 40.8672 17.1719V19.1719ZM43.8702 19.6566C44.7156 19.9472 45.425 20.4106 46.0135 21.0514L47.4865 19.6986C46.6688 18.8082 45.675 18.1621 44.5204 17.7653L43.8702 19.6566ZM46.028 21.0669C46.6171 21.6816 47.0954 22.5192 47.4348 23.6222L49.3464 23.034C48.9358 21.6996 48.3204 20.5684 47.472 19.6831L46.028 21.0669ZM47.4383 23.6333C47.7879 24.724 47.9766 26.1063 47.9766 27.8047H49.9766C49.9766 25.9718 49.7746 24.3698 49.3429 23.0229L47.4383 23.6333ZM47.9766 27.8047V44H49.9766V27.8047H47.9766ZM48.9766 43H42.2031V45H48.9766V43ZM43.2031 44V27.8047H41.2031V44H43.2031ZM43.2031 27.8047C43.2031 26.5722 43.0435 25.4941 42.6242 24.6765L40.8446 25.5891C41.0503 25.9903 41.2031 26.6934 41.2031 27.8047H43.2031ZM42.6377 24.7038C42.2461 23.8794 41.6337 23.256 40.7976 22.917L40.0462 24.7705C40.3663 24.9003 40.6289 25.1362 40.8311 25.5619L42.6377 24.7038ZM40.828 22.9299C40.1082 22.61 39.2911 22.4688 38.4062 22.4688V24.4688C39.0839 24.4688 39.6106 24.5775 40.0157 24.7576L40.828 22.9299ZM38.4062 22.4688C37.4571 22.4688 36.5779 22.6613 35.7993 23.0805L36.7475 24.8414C37.1878 24.6044 37.7304 24.4688 38.4062 24.4688V22.4688ZM35.8171 23.0711C35.0653 23.4566 34.4367 23.9992 33.9393 24.6879L35.5607 25.8589C35.8758 25.4227 36.2628 25.0902 36.7298 24.8508L35.8171 23.0711ZM33.9393 24.6879C33.4545 25.3593 33.1016 26.1282 32.8707 26.9808L34.8012 27.5036C34.9765 26.8562 35.233 26.3126 35.5607 25.8589L33.9393 24.6879ZM32.8721 26.9756C32.6417 27.8085 32.5312 28.7042 32.5312 29.6562H34.5312C34.5312 28.8583 34.6239 28.1446 34.7997 27.5088L32.8721 26.9756ZM72.1094 33.4297L71.1637 33.7548L71.1699 33.7729L71.1768 33.7907L72.1094 33.4297ZM71.125 32.0703L70.4682 32.8244L70.4752 32.8305L70.4824 32.8365L71.125 32.0703ZM65.6875 29.5625L65.3799 30.5141L65.3874 30.5164L65.6875 29.5625ZM61.2812 27.875L60.8674 28.7854L60.8713 28.7871L61.2812 27.875ZM57.625 25.6953L56.9975 26.4739L57.0038 26.479L57.0103 26.484L57.625 25.6953ZM55.1406 22.7656L54.2589 23.2375L54.2641 23.2471L55.1406 22.7656ZM55.1875 15.0312L56.0672 15.5068L56.0699 15.5018L55.1875 15.0312ZM57.8125 12.0312L58.4053 12.8366L58.4125 12.8313L57.8125 12.0312ZM61.7969 10.0859L61.5158 9.12626L61.5131 9.12704L61.7969 10.0859ZM77.8281 14.4922L76.991 15.0392L76.9948 15.045L77.8281 14.4922ZM79.3984 19.9062V20.9062H80.3984V19.9062H79.3984ZM72.4141 19.9062H71.4141V20.9062H72.4141V19.9062ZM71.7812 17.2812L70.8979 17.75L70.9037 17.7608L70.9097 17.7715L71.7812 17.2812ZM69.9062 15.4766L69.4391 16.3608L69.4459 16.3643L69.9062 15.4766ZM63.7188 15.3828L64.1233 16.2973L64.1306 16.2941L64.1378 16.2908L63.7188 15.3828ZM61.8906 16.8594L62.7227 17.4141L62.7291 17.4044L61.8906 16.8594ZM61.7031 20.4922L60.8456 21.0067L60.8518 21.017L60.8583 21.0272L61.7031 20.4922ZM68.0781 24.0078L67.7821 24.963L67.7886 24.965L68.0781 24.0078ZM72.9766 25.9062L72.5293 26.8007L72.5333 26.8026L72.9766 25.9062ZM62.0547 43.8125L61.7885 44.7765L61.797 44.7787L62.0547 43.8125ZM57.5781 41.7734L57.0145 42.5995L57.019 42.6025L57.5781 41.7734ZM53.1953 33.3125V32.3125H52.1953V33.3125H53.1953ZM60.25 33.3125H61.25V32.3125H60.25V33.3125ZM62.125 37.7891L61.5183 38.5841L61.5283 38.5915L62.125 37.7891ZM64.2812 38.7734L64.043 39.7447L64.0472 39.7457L64.2812 38.7734ZM70.0469 38.5625L69.6508 37.6443L69.6441 37.6472L70.0469 38.5625ZM71.8047 37.1328L70.9628 36.5931L70.9578 36.6009L70.953 36.6087L71.8047 37.1328ZM73.3906 35.0703C73.3906 34.3585 73.281 33.6863 73.0419 33.0687L71.1768 33.7907C71.3127 34.1418 71.3906 34.5634 71.3906 35.0703H73.3906ZM73.0551 33.1046C72.8135 32.4018 72.3638 31.8042 71.7676 31.3041L70.4824 32.8365C70.8549 33.149 71.0615 33.4576 71.1637 33.7548L73.0551 33.1046ZM71.7818 31.3162C71.2004 30.8099 70.4292 30.3492 69.507 29.9211L68.6648 31.7351C69.4927 32.1195 70.0808 32.487 70.4682 32.8244L71.7818 31.3162ZM69.507 29.9211C68.5784 29.4899 67.401 29.0532 65.9876 28.6086L65.3874 30.5164C66.7553 30.9468 67.8435 31.3538 68.6648 31.7351L69.507 29.9211ZM65.9951 28.611C64.4807 28.1215 63.0463 27.5719 61.6912 26.9629L60.8713 28.7871C62.2974 29.4281 63.8005 30.0035 65.3799 30.514L65.9951 28.611ZM61.6951 26.9646C60.3831 26.3683 59.2333 25.681 58.2397 24.9066L57.0103 26.484C58.1417 27.3659 59.4294 28.1317 60.8674 28.7854L61.6951 26.9646ZM58.2525 24.9167C57.3008 24.1497 56.5598 23.2722 56.0171 22.2842L54.2641 23.2471C54.9402 24.4778 55.8554 25.5535 56.9975 26.4739L58.2525 24.9167ZM56.0223 22.2937C55.5183 21.3521 55.25 20.2302 55.25 18.8984H53.25C53.25 20.5042 53.5755 21.9604 54.259 23.2375L56.0223 22.2937ZM55.25 18.8984C55.25 17.6287 55.5275 16.5052 56.0672 15.5068L54.3078 14.5557C53.5975 15.8698 53.25 17.3245 53.25 18.8984H55.25ZM56.0699 15.5018C56.6209 14.4686 57.3942 13.5809 58.4053 12.8366L57.2197 11.2259C55.9808 12.1379 55.0041 13.2502 54.3051 14.5607L56.0699 15.5018ZM58.4125 12.8313C59.4304 12.0678 60.6481 11.4687 62.0806 11.0448L61.5131 9.12704C59.8831 9.60938 58.4446 10.3072 57.2125 11.2312L58.4125 12.8313ZM62.078 11.0456C63.5215 10.6228 65.1208 10.4062 66.8828 10.4062V8.40625C64.9573 8.40625 63.166 8.64287 61.5158 9.12626L62.078 11.0456ZM66.8828 10.4062C69.2786 10.4062 71.3196 10.8375 73.0336 11.666L73.9039 9.86528C71.8679 8.88121 69.5183 8.40625 66.8828 8.40625V10.4062ZM73.0336 11.666C74.7626 12.5017 76.0694 13.6288 76.991 15.0392L78.6652 13.9452C77.5244 12.1993 75.9249 10.8421 73.9039 9.86528L73.0336 11.666ZM76.9948 15.045C77.925 16.4472 78.3984 18.0567 78.3984 19.9062H80.3984C80.3984 17.6933 79.825 15.6934 78.6614 13.9394L76.9948 15.045ZM79.3984 18.9062H72.4141V20.9062H79.3984V18.9062ZM73.4141 19.9062C73.4141 18.7626 73.1717 17.7134 72.6528 16.791L70.9097 17.7715C71.2346 18.3491 71.4141 19.0499 71.4141 19.9062H73.4141ZM72.6646 16.8125C72.154 15.8502 71.3724 15.1103 70.3666 14.5888L69.4459 16.3643C70.1276 16.7178 70.596 17.181 70.8979 17.75L72.6646 16.8125ZM70.3734 14.5924C69.3597 14.0568 68.1394 13.8203 66.7656 13.8203V15.8203C67.9231 15.8203 68.7966 16.0213 69.4391 16.3608L70.3734 14.5924ZM66.7656 13.8203C65.4516 13.8203 64.2821 14.0214 63.2997 14.4749L64.1378 16.2908C64.7804 15.9942 65.6421 15.8203 66.7656 15.8203V13.8203ZM63.3142 14.4683C62.3589 14.8909 61.583 15.4977 61.0522 16.3144L62.7291 17.4044C63.0107 16.971 63.4536 16.5935 64.1233 16.2973L63.3142 14.4683ZM61.0586 16.3047C60.5377 17.086 60.2812 17.9683 60.2812 18.9219H62.2812C62.2812 18.3442 62.4311 17.8515 62.7227 17.4141L61.0586 16.3047ZM60.2812 18.9219C60.2812 19.6704 60.4657 20.3735 60.8456 21.0067L62.5606 19.9777C62.3781 19.6734 62.2812 19.3296 62.2812 18.9219H60.2812ZM60.8583 21.0272C61.242 21.6331 61.7831 22.1608 62.4407 22.6229L63.5906 20.9865C63.0919 20.6361 62.758 20.2888 62.5479 19.9571L60.8583 21.0272ZM62.4407 22.6229C63.0901 23.0792 63.8663 23.494 64.7566 23.8731L65.5403 22.0331C64.743 21.6935 64.0974 21.3426 63.5906 20.9865L62.4407 22.6229ZM64.7566 23.8731C65.6386 24.2488 66.6483 24.6117 67.7822 24.963L68.3741 23.0526C67.2892 22.7164 66.3458 22.3762 65.5403 22.0331L64.7566 23.8731ZM67.7886 24.965C69.6058 25.5147 71.1839 26.128 72.5294 26.8007L73.4238 25.0118C71.9567 24.2783 70.2692 23.6259 68.3677 23.0507L67.7886 24.965ZM72.5333 26.8026C73.8887 27.4729 74.993 28.2116 75.8628 29.0101L77.2153 27.5368C76.1788 26.5853 74.9082 25.7459 73.4198 25.0099L72.5333 26.8026ZM75.8628 29.0101C76.7205 29.7975 77.354 30.6771 77.7789 31.6501L79.6118 30.8499C79.0679 29.6042 78.2639 28.4994 77.2153 27.5368L75.8628 29.0101ZM77.7789 31.6501C78.1999 32.6145 78.4219 33.7328 78.4219 35.0234H80.4219C80.4219 33.5015 80.1594 32.1042 79.6118 30.8499L77.7789 31.6501ZM78.4219 35.0234C78.4219 36.3753 78.1594 37.5488 77.6579 38.5654L79.4515 39.4502C80.1062 38.1231 80.4219 36.6403 80.4219 35.0234H78.4219ZM77.6579 38.5654C77.153 39.5889 76.4226 40.4595 75.4506 41.1816L76.6432 42.7871C77.8587 41.8842 78.8002 40.7705 79.4515 39.4502L77.6579 38.5654ZM75.4506 41.1816C74.4694 41.9105 73.28 42.4786 71.8647 42.8726L72.401 44.7993C74.0169 44.3495 75.4369 43.6833 76.6432 42.7871L75.4506 41.1816ZM71.8647 42.8726C70.4512 43.266 68.848 43.4688 67.0469 43.4688V45.4688C68.9957 45.4688 70.7832 45.2496 72.401 44.7993L71.8647 42.8726ZM67.0469 43.4688C65.4469 43.4688 63.8694 43.2615 62.3124 42.8463L61.797 44.7787C63.5212 45.2385 65.2718 45.4688 67.0469 45.4688V43.4688ZM62.3209 42.8486C60.7793 42.4228 59.3869 41.7871 58.1373 40.9444L57.019 42.6025C58.4569 43.5722 60.0488 44.2959 61.7885 44.7764L62.3209 42.8486ZM58.1418 40.9474C56.9406 40.1278 55.9826 39.0857 55.2606 37.8117L53.5206 38.7977C54.3924 40.3362 55.5594 41.6066 57.0145 42.5995L58.1418 40.9474ZM55.2606 37.8117C54.5638 36.5819 54.1953 35.0943 54.1953 33.3125H52.1953C52.1953 35.3744 52.6237 37.215 53.5206 38.7977L55.2606 37.8117ZM53.1953 34.3125H60.25V32.3125H53.1953V34.3125ZM59.25 33.3125C59.25 34.4726 59.4284 35.5189 59.8292 36.4158L61.6552 35.5999C61.3997 35.028 61.25 34.2774 61.25 33.3125H59.25ZM59.8292 36.4158C60.2201 37.2906 60.7816 38.0218 61.5183 38.584L62.7317 36.9941C62.2809 36.6501 61.9205 36.1937 61.6552 35.5999L59.8292 36.4158ZM61.5283 38.5915C62.2571 39.1335 63.1012 39.5136 64.043 39.7446L64.5195 37.8022C63.805 37.627 63.2116 37.3509 62.7217 36.9866L61.5283 38.5915ZM64.0472 39.7457C64.9782 39.9698 65.9797 40.0781 67.0469 40.0781V38.0781C66.114 38.0781 65.2718 37.9833 64.5153 37.8012L64.0472 39.7457ZM67.0469 40.0781C68.3494 40.0781 69.4993 39.8959 70.4496 39.4778L69.6441 37.6472C69.0319 37.9166 68.1819 38.0781 67.0469 38.0781V40.0781ZM70.443 39.4807C71.3877 39.0732 72.1524 38.4758 72.6563 37.6569L70.953 36.6087C70.707 37.0086 70.2998 37.3643 69.6508 37.6443L70.443 39.4807ZM72.6466 37.6725C73.1465 36.8926 73.3906 36.0157 73.3906 35.0703H71.3906C71.3906 35.6562 71.2441 36.1543 70.9628 36.5931L72.6466 37.6725ZM96.4609 38.7266L96.8994 39.6253L96.9081 39.6211L96.9168 39.6166L96.4609 38.7266ZM97.9609 37.3672L97.1154 36.8332L97.1116 36.8393L97.9609 37.3672ZM98.5469 35.2812V34.2812H97.5663L97.5471 35.2616L98.5469 35.2812ZM104.898 35.2812L105.898 35.29L105.907 34.2812H104.898V35.2812ZM103.469 40.0391L104.295 40.6024L104.298 40.5981L103.469 40.0391ZM99.6953 43.2969L100.139 44.1931L100.146 44.1895L99.6953 43.2969ZM89.2422 43.4844L88.8306 44.3958L88.8342 44.3974L89.2422 43.4844ZM85.6094 40.7656L84.8386 41.4028L84.8429 41.4078L85.6094 40.7656ZM83.4297 36.6875L82.4745 36.9836L82.4754 36.9863L83.4297 36.6875ZM83.4297 25.9766L84.384 26.2754L84.3848 26.2727L83.4297 25.9766ZM85.6094 21.8984L86.3759 22.5407L86.3801 22.5356L85.6094 21.8984ZM99.8125 19.3672L99.3582 20.258L99.3618 20.2598L99.8125 19.3672ZM103.516 22.7891L102.658 23.3036L102.665 23.3142L103.516 22.7891ZM104.898 28.0156V29.0156H105.906L105.898 28.0079L104.898 28.0156ZM98.5469 28.0156L97.547 28.0341L97.5652 29.0156H98.5469V28.0156ZM98.0078 25.7188L97.1053 26.1495L97.1093 26.1578L97.1134 26.166L98.0078 25.7188ZM96.5547 24.0781L95.9952 24.907L96.0071 24.915L96.0191 24.9226L96.5547 24.0781ZM91.8203 24.0781L92.3653 24.9166L92.3726 24.9118L92.3798 24.907L91.8203 24.0781ZM90.3672 25.7656L91.2656 26.2049L91.2693 26.1971L90.3672 25.7656ZM89.6406 28.1797L88.6525 28.0264L88.6513 28.0335L88.6503 28.0407L89.6406 28.1797ZM90.3438 36.9219L89.4454 37.3611L89.4493 37.3691L89.4533 37.377L90.3438 36.9219ZM94.2578 40.1953C95.2133 40.1953 96.1017 40.0144 96.8994 39.6253L96.0225 37.8278C95.5389 38.0637 94.9585 38.1953 94.2578 38.1953V40.1953ZM96.9168 39.6166C97.7094 39.2107 98.3494 38.6364 98.8102 37.8951L97.1116 36.8393C96.8537 37.2542 96.4938 37.5862 96.0051 37.8365L96.9168 39.6166ZM98.8064 37.9012C99.2914 37.1333 99.528 36.2549 99.5467 35.3009L97.5471 35.2616C97.5345 35.9013 97.3805 36.4136 97.1154 36.8332L98.8064 37.9012ZM98.5469 36.2812H104.898V34.2812H98.5469V36.2812ZM103.898 35.2725C103.884 36.8703 103.46 38.2624 102.64 39.4801L104.298 40.5981C105.352 39.0344 105.881 37.2547 105.898 35.29L103.898 35.2725ZM102.643 39.4757C101.806 40.7022 100.681 41.6787 99.2446 42.4042L100.146 44.1895C101.865 43.3213 103.256 42.1259 104.295 40.6024L102.643 39.4757ZM99.2516 42.4007C97.8259 43.1065 96.2147 43.4688 94.3984 43.4688V45.4688C96.4885 45.4688 98.4084 45.0498 100.139 44.1931L99.2516 42.4007ZM94.3984 43.4688C92.5395 43.4688 90.9652 43.1589 89.6501 42.5714L88.8342 44.3974C90.4567 45.1223 92.3198 45.4688 94.3984 45.4688V43.4688ZM89.6538 42.573C88.3297 41.975 87.2426 41.1578 86.3759 40.1234L84.8429 41.4078C85.9137 42.6859 87.2484 43.6812 88.8306 44.3957L89.6538 42.573ZM86.3801 40.1285C85.4992 39.0629 84.8323 37.8202 84.384 36.3887L82.4754 36.9863C82.9959 38.6485 83.782 40.1246 84.8386 41.4028L86.3801 40.1285ZM84.3848 36.3914C83.9327 34.9329 83.7031 33.3616 83.7031 31.6719H81.7031C81.7031 33.5446 81.9579 35.3171 82.4745 36.9836L84.3848 36.3914ZM83.7031 31.6719V30.9922H81.7031V31.6719H83.7031ZM83.7031 30.9922C83.7031 29.2858 83.933 27.7157 84.384 26.2754L82.4754 25.6777C81.9576 27.3312 81.7031 29.1049 81.7031 30.9922H83.7031ZM84.3848 26.2727C84.8333 24.8261 85.4993 23.5869 86.3759 22.5407L84.8429 21.2562C83.7819 22.5225 82.9949 24.002 82.4745 25.6805L84.3848 26.2727ZM86.3801 22.5356C87.2469 21.4871 88.3328 20.6642 89.6538 20.0676L88.8306 18.2449C87.2454 18.9608 85.9094 19.9661 84.8386 21.2613L86.3801 22.5356ZM89.6538 20.0676C90.9519 19.4814 92.5092 19.1719 94.3516 19.1719V17.1719C92.2877 17.1719 90.4388 17.5186 88.8306 18.2449L89.6538 20.0676ZM94.3516 19.1719C96.3008 19.1719 97.9601 19.545 99.3582 20.258L100.267 18.4764C98.5399 17.5956 96.5586 17.1719 94.3516 17.1719V19.1719ZM99.3618 20.2598C100.775 20.9735 101.867 21.9847 102.658 23.3036L104.373 22.2746C103.383 20.6247 102.006 19.3546 100.263 18.4745L99.3618 20.2598ZM102.665 23.3142C103.46 24.6028 103.884 26.1594 103.898 28.0234L105.898 28.0079C105.882 25.8406 105.384 23.9128 104.367 22.264L102.665 23.3142ZM104.898 27.0156H98.5469V29.0156H104.898V27.0156ZM99.5467 27.9971C99.5286 27.0192 99.3189 26.1049 98.9022 25.2715L97.1134 26.166C97.3842 26.7076 97.5339 27.3246 97.547 28.0341L99.5467 27.9971ZM98.9103 25.288C98.5015 24.4316 97.8903 23.741 97.0902 23.2336L96.0191 24.9226C96.5003 25.2277 96.8578 25.6309 97.1053 26.1495L98.9103 25.288ZM97.1142 23.2493C96.2903 22.6932 95.3108 22.4453 94.2344 22.4453V24.4453C95.0017 24.4453 95.5691 24.6193 95.9952 24.907L97.1142 23.2493ZM94.2344 22.4453C93.1108 22.4453 92.0948 22.6864 91.2608 23.2493L92.3798 24.907C92.7958 24.6261 93.3892 24.4453 94.2344 24.4453V22.4453ZM91.2753 23.2397C90.4854 23.7531 89.8825 24.4614 89.465 25.3342L91.2693 26.1971C91.5394 25.6324 91.9052 25.2156 92.3653 24.9166L91.2753 23.2397ZM89.4688 25.3264C89.0741 26.1337 88.8059 27.0374 88.6525 28.0264L90.6288 28.333C90.7566 27.5094 90.9728 26.8038 91.2656 26.2048L89.4688 25.3264ZM88.6503 28.0407C88.5183 28.9814 88.4531 29.9656 88.4531 30.9922H90.4531C90.4531 30.05 90.513 29.1592 90.6309 28.3187L88.6503 28.0407ZM88.4531 30.9922V31.6719H90.4531V30.9922H88.4531ZM88.4531 31.6719C88.4531 32.6985 88.5183 33.6897 88.65 34.6445L90.6312 34.3712C90.5129 33.5135 90.4531 32.614 90.4531 31.6719H88.4531ZM88.65 34.6445C88.7871 35.6385 89.0479 36.5481 89.4454 37.3611L91.2421 36.4827C90.9521 35.8894 90.7441 35.1896 90.6312 34.3712L88.65 34.6445ZM89.4533 37.377C89.8874 38.2263 90.4949 38.9171 91.2753 39.4244L92.3653 37.7475C91.8958 37.4423 91.5188 37.0237 91.2342 36.4668L89.4533 37.377ZM91.2753 39.4244C92.1092 39.9664 93.1288 40.1953 94.2578 40.1953V38.1953C93.3868 38.1953 92.7814 38.018 92.3653 37.7475L91.2753 39.4244ZM115.398 8H116.398V7H115.398V8ZM115.398 44V45H116.398V44H115.398ZM108.648 44H107.648V45H108.648V44ZM108.648 8V7H107.648V8H108.648ZM114.438 30.4297V31.4297H115.438V30.4297H114.438ZM112.586 30.4297L111.586 30.4208L111.577 31.4297H112.586V30.4297ZM113.289 25.5547L114.245 25.8467L114.246 25.8439L113.289 25.5547ZM115.234 21.6641L116.026 22.2749L116.03 22.2694L115.234 21.6641ZM118.258 19.0859L117.801 18.1962L117.796 18.1987L118.258 19.0859ZM125.594 18.7109L125.26 19.6537L125.269 19.6567L125.278 19.6596L125.594 18.7109ZM128.242 20.3984L127.514 21.0833L127.521 21.0909L127.528 21.0982L128.242 20.3984ZM130.586 44V45H131.586V44H130.586ZM123.789 44H122.789V45H123.789V44ZM123.297 25.2734L122.394 25.7034L122.4 25.7164L122.407 25.7293L123.297 25.2734ZM121.914 23.8906L121.486 24.7944L121.5 24.8011L121.514 24.8073L121.914 23.8906ZM117.227 24.0078L116.763 23.1215L116.755 23.126L117.227 24.0078ZM115.609 25.5078L116.448 26.0528L116.454 26.0434L115.609 25.5078ZM114.398 8V44H116.398V8H114.398ZM115.398 43H108.648V45H115.398V43ZM109.648 44V8H107.648V44H109.648ZM108.648 9H115.398V7H108.648V9ZM114.438 29.4297H112.586V31.4297H114.438V29.4297ZM113.586 30.4385C113.601 28.7559 113.824 27.2276 114.245 25.8467L112.333 25.2627C111.848 26.8505 111.602 28.5722 111.586 30.4208L113.586 30.4385ZM114.246 25.8439C114.669 24.4447 115.266 23.2603 116.026 22.2749L114.443 21.0533C113.515 22.2553 112.815 23.6646 112.332 25.2655L114.246 25.8439ZM116.03 22.2694C116.79 21.2709 117.685 20.5107 118.719 19.9732L117.796 18.1987C116.486 18.8799 115.366 19.8385 114.438 21.0587L116.03 22.2694ZM118.714 19.9756C119.75 19.4443 120.904 19.1719 122.195 19.1719V17.1719C120.612 17.1719 119.141 17.5089 117.801 18.1962L118.714 19.9756ZM122.195 19.1719C123.35 19.1719 124.367 19.3377 125.26 19.6537L125.927 17.7682C124.789 17.3654 123.541 17.1719 122.195 17.1719V19.1719ZM125.278 19.6596C126.154 19.9517 126.894 20.4246 127.514 21.0833L128.971 19.7135C128.121 18.8098 127.096 18.1576 125.91 17.7623L125.278 19.6596ZM127.528 21.0982C128.148 21.7315 128.656 22.5951 129.026 23.731L130.928 23.1128C130.484 21.7487 129.836 20.5967 128.957 19.6987L127.528 21.0982ZM129.026 23.731C129.39 24.8528 129.586 26.2578 129.586 27.9688H131.586C131.586 26.1172 131.376 24.491 130.928 23.1128L129.026 23.731ZM129.586 27.9688V44H131.586V27.9688H129.586ZM130.586 43H123.789V45H130.586V43ZM124.789 44V27.9219H122.789V44H124.789ZM124.789 27.9219C124.789 26.7189 124.617 25.6568 124.187 24.8176L122.407 25.7293C122.633 26.1713 122.789 26.8749 122.789 27.9219H124.789ZM124.2 24.8435C123.794 23.9916 123.165 23.3451 122.314 22.9739L121.514 24.8073C121.882 24.9674 122.175 25.2428 122.394 25.7034L124.2 24.8435ZM122.342 22.9869C121.578 22.6249 120.687 22.4688 119.711 22.4688V24.4688C120.485 24.4688 121.063 24.5939 121.486 24.7944L122.342 22.9869ZM119.711 22.4688C118.62 22.4688 117.625 22.6712 116.763 23.1216L117.69 24.894C118.203 24.6257 118.864 24.4688 119.711 24.4688V22.4688ZM116.755 23.126C115.932 23.5664 115.264 24.1853 114.765 24.9723L116.454 26.0434C116.767 25.549 117.178 25.168 117.698 24.8896L116.755 23.126ZM114.771 24.9628C114.29 25.7027 113.952 26.5519 113.743 27.494L115.695 27.9279C115.861 27.1825 116.116 26.563 116.448 26.0528L114.771 24.9628ZM113.743 27.494C113.537 28.4169 113.438 29.3966 113.438 30.4297H115.438C115.438 29.5253 115.525 28.6924 115.695 27.9279L113.743 27.494ZM135.438 25.9531L136.384 26.275L136.385 26.2722L135.438 25.9531ZM141.508 19.1562L141.904 20.0744L141.912 20.0709L141.508 19.1562ZM151.75 19.1562L151.349 20.0724L151.357 20.0759L151.75 19.1562ZM155.523 21.8516L154.772 22.5115L154.777 22.5172L155.523 21.8516ZM157.867 25.9531L156.919 26.2722L156.92 26.275L157.867 25.9531ZM157.867 36.7109L158.814 37.0328L158.815 37.03L157.867 36.7109ZM155.523 40.8125L154.773 40.1519L154.772 40.1526L155.523 40.8125ZM141.531 43.5078L141.135 44.426L141.138 44.4275L141.531 43.5078ZM137.758 40.8125L137.002 41.4674L137.007 41.4728L137.012 41.4781L137.758 40.8125ZM135.438 36.7109L134.49 37.03L134.491 37.0328L135.438 36.7109ZM142.562 36.9922L141.697 37.4925L141.703 37.5039L141.71 37.5152L142.562 36.9922ZM150.695 36.9922L151.556 37.5009L151.561 37.4925L150.695 36.9922ZM151.586 34.5547L150.609 34.3395L150.608 34.3474L150.606 34.3554L151.586 34.5547ZM151.586 28.1797L150.606 28.379L150.608 28.3887L150.61 28.3984L151.586 28.1797ZM150.672 25.7422L149.801 26.2342L149.808 26.2455L149.814 26.2567L150.672 25.7422ZM144.18 24.0547L143.662 23.1989L143.653 23.2044L144.18 24.0547ZM142.562 25.7422L141.7 25.236L141.697 25.2419L142.562 25.7422ZM141.672 28.1797L142.651 28.3823L142.652 28.379L141.672 28.1797ZM135.641 31.5781V31.0859H133.641V31.5781H135.641ZM135.641 31.0859C135.641 29.3223 135.892 27.7216 136.384 26.275L134.491 25.6312C133.92 27.3096 133.641 29.1308 133.641 31.0859H135.641ZM136.385 26.2722C136.878 24.8092 137.588 23.5603 138.509 22.5115L137.006 21.1916C135.897 22.4553 135.06 23.9408 134.49 25.6341L136.385 26.2722ZM138.509 22.5115C139.422 21.4722 140.549 20.6594 141.904 20.0744L141.112 18.2381C139.498 18.9344 138.125 19.9184 137.006 21.1916L138.509 22.5115ZM141.912 20.0709C143.248 19.4803 144.809 19.1719 146.617 19.1719V17.1719C144.581 17.1719 142.736 17.5197 141.103 18.2416L141.912 20.0709ZM146.617 19.1719C148.425 19.1719 149.996 19.4802 151.349 20.0724L152.151 18.2401C150.504 17.5198 148.653 17.1719 146.617 17.1719V19.1719ZM151.357 20.0759C152.728 20.6614 153.861 21.4742 154.772 22.5115L156.275 21.1916C155.155 19.9164 153.772 18.9323 152.143 18.2366L151.357 20.0759ZM154.777 22.5172C155.712 23.5653 156.428 24.8123 156.919 26.2722L158.815 25.6341C158.244 23.9377 157.397 22.4503 156.27 21.1859L154.777 22.5172ZM156.92 26.275C157.412 27.7216 157.664 29.3223 157.664 31.0859H159.664C159.664 29.1308 159.385 27.3096 158.814 25.6312L156.92 26.275ZM157.664 31.0859V31.5781H159.664V31.0859H157.664ZM157.664 31.5781C157.664 33.3249 157.413 34.927 156.919 36.3919L158.815 37.03C159.384 35.3386 159.664 33.5188 159.664 31.5781H157.664ZM156.92 36.389C156.429 37.8341 155.712 39.0845 154.773 40.1519L156.274 41.4731C157.397 40.1968 158.243 38.7128 158.814 37.0328L156.92 36.389ZM154.772 40.1526C153.859 41.1919 152.733 42.0047 151.377 42.5897L152.17 44.426C153.783 43.7297 155.156 42.7456 156.275 41.4724L154.772 40.1526ZM151.377 42.5897C150.039 43.1671 148.475 43.4688 146.664 43.4688V45.4688C148.697 45.4688 150.539 45.1298 152.17 44.426L151.377 42.5897ZM146.664 43.4688C144.853 43.4688 143.28 43.1672 141.924 42.5882L141.138 44.4275C142.783 45.1297 144.631 45.4688 146.664 45.4688V43.4688ZM141.928 42.5897C140.571 42.0042 139.434 41.1897 138.504 40.1469L137.012 41.4781C138.144 42.7478 139.523 43.7302 141.135 44.426L141.928 42.5897ZM138.514 40.1576C137.588 39.0895 136.877 37.8372 136.384 36.389L134.491 37.0328C135.061 38.7097 135.897 40.1918 137.002 41.4674L138.514 40.1576ZM136.385 36.3919C135.892 34.927 135.641 33.3249 135.641 31.5781H133.641C133.641 33.5188 133.92 35.3386 134.49 37.03L136.385 36.3919ZM140.391 31.0859V31.5781H142.391V31.0859H140.391ZM140.391 31.5781C140.391 32.6991 140.49 33.7587 140.692 34.754L142.652 34.3554C142.479 33.5069 142.391 32.5821 142.391 31.5781H140.391ZM140.692 34.754C140.898 35.7653 141.229 36.6823 141.697 37.4925L143.428 36.4919C143.084 35.8958 142.821 35.1879 142.652 34.3554L140.692 34.754ZM141.71 37.5152C142.215 38.3382 142.88 38.9969 143.701 39.4739L144.706 37.7449C144.182 37.4406 143.754 37.0212 143.415 36.4692L141.71 37.5152ZM143.701 39.4739C144.558 39.9726 145.562 40.1953 146.664 40.1953V38.1953C145.829 38.1953 145.192 38.0274 144.706 37.7449L143.701 39.4739ZM146.664 40.1953C147.742 40.1953 148.728 39.9699 149.581 39.4739L148.576 37.7449C148.085 38.0301 147.461 38.1953 146.664 38.1953V40.1953ZM149.581 39.4739C150.405 38.9948 151.065 38.3315 151.556 37.5009L149.834 36.4835C149.513 37.0279 149.095 37.4427 148.576 37.7449L149.581 39.4739ZM151.561 37.4925C152.029 36.6823 152.36 35.7653 152.566 34.754L150.606 34.3554C150.437 35.1879 150.174 35.8958 149.829 36.4919L151.561 37.4925ZM152.563 34.7699C152.783 33.7691 152.891 32.7041 152.891 31.5781H150.891C150.891 32.5771 150.795 33.4965 150.609 34.3395L152.563 34.7699ZM152.891 31.5781V31.0859H150.891V31.5781H152.891ZM152.891 31.0859C152.891 29.9891 152.783 28.9464 152.562 27.961L150.61 28.3984C150.796 29.2255 150.891 30.1203 150.891 31.0859H152.891ZM152.566 27.9804C152.359 26.9634 152.018 26.0413 151.529 25.2277L149.814 26.2567C150.17 26.8493 150.438 27.5522 150.606 28.379L152.566 27.9804ZM151.542 25.2501C151.056 24.3898 150.399 23.6987 149.572 23.199L148.537 24.9104C149.054 25.2232 149.475 25.657 149.801 26.2342L151.542 25.2501ZM149.572 23.199C148.714 22.68 147.714 22.4453 146.617 22.4453V24.4453C147.427 24.4453 148.052 24.6169 148.537 24.9104L149.572 23.199ZM146.617 22.4453C145.521 22.4453 144.521 22.68 143.662 23.199L144.697 24.9104C145.183 24.6169 145.807 24.4453 146.617 24.4453V22.4453ZM143.653 23.2044C142.848 23.7031 142.198 24.3884 141.7 25.236L143.425 26.2484C143.771 25.6585 144.199 25.2188 144.706 24.905L143.653 23.2044ZM141.697 25.2419C141.229 26.052 140.898 26.9691 140.692 27.9804L142.652 28.379C142.821 27.5465 143.084 26.8386 143.428 26.2425L141.697 25.2419ZM140.693 27.9771C140.49 28.9571 140.391 29.9942 140.391 31.0859H142.391C142.391 30.1151 142.479 29.2148 142.651 28.3823L140.693 27.9771ZM162.531 25.9531L163.478 26.275L163.479 26.2722L162.531 25.9531ZM168.602 19.1562L168.998 20.0744L169.006 20.0709L168.602 19.1562ZM178.844 19.1562L178.443 20.0724L178.451 20.0759L178.844 19.1562ZM182.617 21.8516L181.866 22.5115L181.871 22.5172L182.617 21.8516ZM184.961 25.9531L184.013 26.2722L184.014 26.275L184.961 25.9531ZM184.961 36.7109L185.908 37.0328L185.909 37.03L184.961 36.7109ZM182.617 40.8125L181.866 40.1519L181.866 40.1526L182.617 40.8125ZM168.625 43.5078L168.229 44.426L168.232 44.4275L168.625 43.5078ZM164.852 40.8125L164.096 41.4674L164.101 41.4728L164.105 41.4781L164.852 40.8125ZM162.531 36.7109L161.584 37.03L161.584 37.0328L162.531 36.7109ZM169.656 36.9922L168.79 37.4925L168.797 37.5039L168.804 37.5152L169.656 36.9922ZM177.789 36.9922L178.65 37.5009L178.655 37.4925L177.789 36.9922ZM178.68 34.5547L177.703 34.3395L177.701 34.3474L177.7 34.3554L178.68 34.5547ZM178.68 28.1797L177.7 28.379L177.702 28.3887L177.704 28.3984L178.68 28.1797ZM177.766 25.7422L176.895 26.2342L176.901 26.2455L176.908 26.2567L177.766 25.7422ZM171.273 24.0547L170.756 23.1989L170.747 23.2044L171.273 24.0547ZM169.656 25.7422L168.794 25.236L168.79 25.2419L169.656 25.7422ZM168.766 28.1797L169.745 28.3823L169.746 28.379L168.766 28.1797ZM162.734 31.5781V31.0859H160.734V31.5781H162.734ZM162.734 31.0859C162.734 29.3223 162.986 27.7216 163.478 26.275L161.584 25.6312C161.014 27.3096 160.734 29.1308 160.734 31.0859H162.734ZM163.479 26.2722C163.971 24.8092 164.682 23.5603 165.603 22.5115L164.1 21.1916C162.99 22.4553 162.154 23.9408 161.584 25.6341L163.479 26.2722ZM165.603 22.5115C166.516 21.4722 167.642 20.6594 168.998 20.0744L168.205 18.2381C166.592 18.9344 165.219 19.9184 164.1 21.1916L165.603 22.5115ZM169.006 20.0709C170.342 19.4803 171.903 19.1719 173.711 19.1719V17.1719C171.675 17.1719 169.83 17.5197 168.197 18.2416L169.006 20.0709ZM173.711 19.1719C175.519 19.1719 177.089 19.4802 178.443 20.0724L179.245 18.2401C177.598 17.5198 175.747 17.1719 173.711 17.1719V19.1719ZM178.451 20.0759C179.822 20.6614 180.955 21.4742 181.866 22.5115L183.368 21.1916C182.248 19.9164 180.866 18.9323 179.237 18.2366L178.451 20.0759ZM181.871 22.5172C182.806 23.5653 183.522 24.8123 184.013 26.2722L185.909 25.6341C185.338 23.9377 184.491 22.4503 183.363 21.1859L181.871 22.5172ZM184.014 26.275C184.506 27.7216 184.758 29.3223 184.758 31.0859H186.758C186.758 29.1308 186.478 27.3096 185.908 25.6312L184.014 26.275ZM184.758 31.0859V31.5781H186.758V31.0859H184.758ZM184.758 31.5781C184.758 33.3249 184.506 34.927 184.013 36.3919L185.909 37.03C186.478 35.3386 186.758 33.5188 186.758 31.5781H184.758ZM184.014 36.389C183.523 37.8341 182.806 39.0845 181.866 40.1519L183.368 41.4731C184.491 40.1968 185.337 38.7128 185.908 37.0328L184.014 36.389ZM181.866 40.1526C180.953 41.1919 179.826 42.0047 178.471 42.5897L179.263 44.426C180.877 43.7297 182.25 42.7456 183.368 41.4724L181.866 40.1526ZM178.471 42.5897C177.133 43.1671 175.569 43.4688 173.758 43.4688V45.4688C175.791 45.4688 177.633 45.1298 179.263 44.426L178.471 42.5897ZM173.758 43.4688C171.947 43.4688 170.374 43.1672 169.018 42.5882L168.232 44.4275C169.876 45.1297 171.725 45.4688 173.758 45.4688V43.4688ZM169.021 42.5897C167.665 42.0042 166.528 41.1897 165.598 40.1469L164.105 41.4781C165.238 42.7478 166.617 43.7302 168.229 44.426L169.021 42.5897ZM165.607 40.1576C164.682 39.0895 163.97 37.8372 163.478 36.389L161.584 37.0328C162.155 38.7097 162.99 40.1918 164.096 41.4674L165.607 40.1576ZM163.479 36.3919C162.986 34.927 162.734 33.3249 162.734 31.5781H160.734C160.734 33.5188 161.014 35.3386 161.584 37.03L163.479 36.3919ZM167.484 31.0859V31.5781H169.484V31.0859H167.484ZM167.484 31.5781C167.484 32.6991 167.583 33.7587 167.786 34.754L169.746 34.3554C169.573 33.5069 169.484 32.5821 169.484 31.5781H167.484ZM167.786 34.754C167.991 35.7653 168.322 36.6823 168.79 37.4925L170.522 36.4919C170.178 35.8958 169.915 35.1879 169.746 34.3554L167.786 34.754ZM168.804 37.5152C169.309 38.3382 169.974 38.9969 170.794 39.4739L171.799 37.7449C171.276 37.4406 170.847 37.0212 170.509 36.4692L168.804 37.5152ZM170.794 39.4739C171.652 39.9726 172.656 40.1953 173.758 40.1953V38.1953C172.923 38.1953 172.285 38.0274 171.799 37.7449L170.794 39.4739ZM173.758 40.1953C174.835 40.1953 175.821 39.9699 176.674 39.4739L175.669 37.7449C175.179 38.0301 174.555 38.1953 173.758 38.1953V40.1953ZM176.674 39.4739C177.498 38.9948 178.159 38.3315 178.65 37.5009L176.928 36.4835C176.606 37.0279 176.189 37.4427 175.669 37.7449L176.674 39.4739ZM178.655 37.4925C179.123 36.6823 179.454 35.7653 179.66 34.754L177.7 34.3554C177.53 35.1879 177.268 35.8958 176.923 36.4919L178.655 37.4925ZM179.656 34.7699C179.877 33.7691 179.984 32.7041 179.984 31.5781H177.984C177.984 32.5771 177.889 33.4965 177.703 34.3395L179.656 34.7699ZM179.984 31.5781V31.0859H177.984V31.5781H179.984ZM179.984 31.0859C179.984 29.9891 179.876 28.9464 179.655 27.961L177.704 28.3984C177.889 29.2255 177.984 30.1203 177.984 31.0859H179.984ZM179.66 27.9804C179.453 26.9634 179.111 26.0413 178.623 25.2277L176.908 26.2567C177.264 26.8493 177.532 27.5522 177.7 28.379L179.66 27.9804ZM178.636 25.2501C178.15 24.3898 177.492 23.6987 176.666 23.199L175.631 24.9104C176.148 25.2232 176.569 25.657 176.895 26.2342L178.636 25.2501ZM176.666 23.199C175.808 22.68 174.807 22.4453 173.711 22.4453V24.4453C174.521 24.4453 175.146 24.6169 175.631 24.9104L176.666 23.199ZM173.711 22.4453C172.614 22.4453 171.614 22.68 170.756 23.199L171.791 24.9104C172.276 24.6169 172.901 24.4453 173.711 24.4453V22.4453ZM170.747 23.2044C169.942 23.7031 169.291 24.3884 168.794 25.236L170.519 26.2484C170.865 25.6585 171.293 25.2188 171.8 24.905L170.747 23.2044ZM168.79 25.2419C168.322 26.052 167.991 26.9691 167.786 27.9804L169.746 28.379C169.915 27.5465 170.178 26.8386 170.522 26.2425L168.79 25.2419ZM167.786 27.9771C167.584 28.9571 167.484 29.9942 167.484 31.0859H169.484C169.484 30.1151 169.573 29.2148 169.745 28.3823L167.786 27.9771ZM197.031 8H198.031V7H197.031V8ZM197.031 44V45H198.031V44H197.031ZM190.258 44H189.258V45H190.258V44ZM190.258 8V7H189.258V8H190.258ZM196.031 8V44H198.031V8H196.031ZM197.031 43H190.258V45H197.031V43ZM191.258 44V8H189.258V44H191.258ZM190.258 9H197.031V7H190.258V9Z" fill="white"/>
</g>
<defs>
<filter id="filter0_d_24_18373" x="0.601562" y="0" width="208.43" height="60.4688" filterUnits="userSpaceOnUse" color-interpolation-filters="sRGB">
<feFlood flood-opacity="0" result="BackgroundImageFix"/>
<feColorMatrix in="SourceAlpha" type="matrix" values="0 0 0 0 0 0 0 0 0 0 0 0 0 0 0 0 0 0 127 0" result="hardAlpha"/>
<feOffset dy="4"/>
<feGaussianBlur stdDeviation="6"/>
<feComposite in2="hardAlpha" operator="out"/>
<feColorMatrix type="matrix" values="0 0 0 0 0.00784314 0 0 0 0 0.00784314 0 0 0 0 0.00784314 0 0 0 0.15 0"/>
<feBlend mode="normal" in2="BackgroundImageFix" result="effect1_dropShadow_24_18373"/>
<feBlend mode="normal" in="SourceGraphic" in2="effect1_dropShadow_24_18373" result="shape"/>
</filter>
</defs>
</svg>
