<svg width="19" height="20" viewBox="0 0 19 20" fill="none" xmlns="http://www.w3.org/2000/svg">
<path fill-rule="evenodd" clip-rule="evenodd" d="M0.852879 7.03376C0.5 7.78718 0.5 8.64431 0.5 10.3586V14.4498C0.5 16.8305 0.5 18.0208 1.25315 18.7604C2.00631 19.5 3.21849 19.5 5.64286 19.5H6.28516C6.28516 19.5 6.28516 19.5 6.28516 19.5V13.1872C6.28516 12.4899 6.86079 11.9246 7.57087 11.9246H11.428C12.1381 11.9246 12.7137 12.4899 12.7137 13.1872V19.5C12.7137 19.5 12.7137 19.5 12.7137 19.5H13.3571C15.7815 19.5 16.9937 19.5 17.7468 18.7604C18.5 18.0208 18.5 16.8305 18.5 14.4498V10.3586C18.5 8.64431 18.5 7.78718 18.1471 7.03376C17.7942 6.28034 17.1315 5.72253 15.8061 4.60691L14.5204 3.52471C12.1247 1.50824 10.9269 0.5 9.5 0.5C8.07315 0.5 6.8753 1.50824 4.47961 3.52471L3.1939 4.60691C1.86847 5.72253 1.20576 6.28034 0.852879 7.03376Z" fill="#0353B4"/>
</svg>
