<svg width="25" height="24" viewBox="0 0 25 24" fill="none" xmlns="http://www.w3.org/2000/svg">
<path fill-rule="evenodd" clip-rule="evenodd" d="M4 4.5C4 3.39543 4.89543 2.5 6 2.5H19C20.1046 2.5 21 3.39543 21 4.5V19.5C21 20.6046 20.1046 21.5 19 21.5H6C4.89543 21.5 4 20.6046 4 19.5V17.75H5.0801C5.74254 17.75 6.25 17.1792 6.25 16.5128C6.25 15.8465 5.74254 15.2757 5.0801 15.2757H4V13.2373H5.0801C5.74254 13.2373 6.25 12.6665 6.25 12.0002C6.25 11.3338 5.74254 10.763 5.0801 10.763H4V8.72434H5.0801C5.74254 8.72434 6.25 8.15353 6.25 7.48717C6.25 6.82081 5.74254 6.25 5.0801 6.25H4V4.5ZM17.9353 14.9823C17.5711 14.3644 16.0633 13.7499 15.4193 13.7756C15.2212 13.7835 15.0296 13.848 14.867 13.9615L14.1065 14.4987C12.9525 13.5514 12.0755 12.3102 11.5681 10.906L12.3286 10.3687C12.4899 10.2534 12.6147 10.0943 12.6883 9.91023C12.9528 9.24878 12.8179 7.65234 12.3963 7.14178C11.9196 6.56442 10.455 6.36761 9.80273 6.53112C9.66311 6.56613 9.5323 6.62982 9.41864 6.71815C9.30497 6.80648 9.21095 6.9175 9.14255 7.04416C9.07415 7.17082 9.03287 7.31033 9.02134 7.45381C8.91746 9.06194 9.19386 10.6719 9.82812 12.1533C10.4003 13.5227 11.2669 14.7493 12.3665 15.7461C13.5454 16.8347 14.9633 17.6317 16.5061 18.0729C16.6456 18.1101 16.7914 18.1177 16.934 18.0953C17.0766 18.0729 17.213 18.0209 17.3344 17.9428C17.4558 17.8646 17.5596 17.762 17.639 17.6414C18.0443 17.026 18.3021 15.6046 17.9353 14.9823Z" fill="#B8C3E1"/>
</svg>
