<svg width="17" height="20" viewBox="0 0 17 20" fill="none" xmlns="http://www.w3.org/2000/svg">
<path d="M17 14.9509C17 13.694 15.3369 13.0288 15.3369 11.7718V7.72547C15.3369 3.73495 12.2663 0.5 8.47857 0.5C4.69084 0.5 1.62027 3.73495 1.62027 7.72547V11.8181C1.62027 13.0495 0 13.7195 0 14.9509C0 15.4497 0.38382 15.8541 0.857287 15.8541H16.1427C16.6162 15.8541 17 15.4497 17 14.9509Z" fill="#B8C3E1"/>
<path d="M5.55009 16.8777C5.55009 17.2221 5.62705 17.5631 5.77655 17.8812C5.92606 18.1994 6.1452 18.4885 6.42145 18.732C6.69771 18.9755 7.02567 19.1686 7.38661 19.3004C7.74756 19.4322 8.13441 19.5 8.52509 19.5C8.91578 19.5 9.30263 19.4322 9.66358 19.3004C10.0245 19.1686 10.3525 18.9755 10.6287 18.732C10.905 18.4885 11.1241 18.1994 11.2736 17.8812C11.4231 17.5631 11.5001 17.2221 11.5001 16.8777H5.55009Z" fill="#B8C3E1"/>
</svg>
