<svg width="45" height="44" viewBox="0 0 45 44" fill="none" xmlns="http://www.w3.org/2000/svg">
<path fill-rule="evenodd" clip-rule="evenodd" d="M39.799 4.60533C35.6337 0.469333 29.679 0 22.375 0C15.071 0 9.087 0.469333 4.951 4.60533C0.815001 8.74133 0.375 14.7253 0.375 22.0293C0.375 29.3333 0.785668 35.288 4.951 39.4533C9.11633 43.6187 15.071 44 22.375 44C29.679 44 35.663 43.5893 39.799 39.424C43.935 35.2587 44.375 29.304 44.375 22C44.375 14.696 43.935 8.74133 39.799 4.60533Z" fill="url(#paint0_linear_62_31387)"/>
<path d="M16.4835 18.3052H14.843C14.279 18.3052 13.8176 18.7222 13.8176 19.2319V27.2197C13.8176 27.7294 14.279 28.1464 14.843 28.1464H16.4835C17.0474 28.1464 17.5088 27.7294 17.5088 27.2197V19.2319C17.5088 18.713 17.0474 18.3052 16.4835 18.3052Z" fill="#F2F2F2"/>
<path d="M23.1017 15.3493H21.4944C20.9418 15.3493 20.4898 15.7663 20.4898 16.2759V27.2198C20.4898 27.7295 20.9418 28.1465 21.4944 28.1465H23.1017C23.6542 28.1465 24.1063 27.7295 24.1063 27.2198V16.2759C24.1063 15.7663 23.6542 15.3493 23.1017 15.3493Z" fill="#F2F2F2"/>
<path d="M29.8775 12.3928H28.2061C27.6315 12.3928 27.1614 12.8098 27.1614 13.3195V27.2194C27.1614 27.7291 27.6315 28.146 28.2061 28.146H29.8775C30.4521 28.146 30.9222 27.7291 30.9222 27.2194V13.3195C30.9222 12.8098 30.4521 12.3928 29.8775 12.3928Z" fill="#F2F2F2"/>
<path fill-rule="evenodd" clip-rule="evenodd" d="M13.7773 30.5489C13.7773 29.9644 14.2512 29.4906 14.8356 29.4906L29.9143 29.4906C30.4988 29.4906 30.9726 29.9644 30.9726 30.5489C30.9726 31.1334 30.4988 31.6072 29.9143 31.6072L14.8356 31.6072C14.2512 31.6072 13.7773 31.1334 13.7773 30.5489Z" fill="#F2F2F2"/>
<defs>
<linearGradient id="paint0_linear_62_31387" x1="-2.49975e-08" y1="-4.52961e-08" x2="36.5" y2="44" gradientUnits="userSpaceOnUse">
<stop stop-color="#5D5FEF" stop-opacity="0.79"/>
<stop offset="1" stop-color="#5D5FEF"/>
</linearGradient>
</defs>
</svg>
