<svg width="44" height="44" viewBox="0 0 44 44" fill="none" xmlns="http://www.w3.org/2000/svg">
<path fill-rule="evenodd" clip-rule="evenodd" d="M39.424 4.60533C35.2587 0.469333 29.304 0 22 0C14.696 0 8.712 0.469333 4.576 4.60533C0.440001 8.74133 0 14.7253 0 22.0293C0 29.3333 0.410668 35.288 4.576 39.4533C8.74133 43.6187 14.696 44 22 44C29.304 44 35.288 43.5893 39.424 39.424C43.56 35.2587 44 29.304 44 22C44 14.696 43.56 8.74133 39.424 4.60533Z" fill="url(#paint0_linear_62_31370)"/>
<path d="M15.0909 14.3949C15.0903 14.3949 15.0897 14.3949 15.0892 14.3949C14.9009 14.3949 14.7238 14.4683 14.5901 14.6017C14.4548 14.7365 14.3804 14.9161 14.3804 15.1073V25.7903C14.3804 26.182 14.7003 26.5015 15.0937 26.5025C16.752 26.5065 19.5303 26.8521 21.447 28.8578V17.6778C21.447 17.545 21.413 17.4203 21.349 17.317C19.7759 14.7837 16.7529 14.3988 15.0909 14.3949Z" fill="white"/>
<path d="M29.6197 25.7903V15.1072C29.6197 14.9161 29.5453 14.7365 29.4101 14.6016C29.2763 14.4682 29.0991 14.3948 28.911 14.3948C28.9104 14.3948 28.9098 14.3948 28.9092 14.3948C27.2472 14.3988 24.2243 14.7837 22.6511 17.317C22.5871 17.4203 22.5532 17.545 22.5532 17.6778V28.8578C24.4699 26.852 27.2482 26.5064 28.9065 26.5025C29.2998 26.5014 29.6197 26.182 29.6197 25.7903Z" fill="white"/>
<path d="M31.2422 16.8585H30.7256V25.7903C30.7256 26.7905 29.9107 27.6061 28.9089 27.6086C27.5023 27.6119 25.1831 27.887 23.5405 29.4416C26.3813 28.746 29.376 29.1982 31.0827 29.5871C31.2958 29.6357 31.516 29.5855 31.6868 29.4494C31.8569 29.3137 31.9545 29.1108 31.9545 28.893V17.5708C31.9546 17.1781 31.6349 16.8585 31.2422 16.8585Z" fill="white"/>
<path d="M13.2743 25.7903V16.8585H12.7577C12.365 16.8585 12.0454 17.1781 12.0454 17.5708V28.8928C12.0454 29.1106 12.143 29.3135 12.3131 29.4492C12.4837 29.5853 12.7038 29.6356 12.9172 29.5869C14.6239 29.1979 17.6187 28.7458 20.4593 29.4414C18.8168 27.8869 16.4976 27.6119 15.091 27.6085C14.0893 27.6061 13.2743 26.7905 13.2743 25.7903Z" fill="white"/>
<defs>
<linearGradient id="paint0_linear_62_31370" x1="22" y1="0" x2="22" y2="44" gradientUnits="userSpaceOnUse">
<stop stop-color="#42A5DD"/>
<stop offset="1" stop-color="#188CCE"/>
</linearGradient>
</defs>
</svg>
