<svg width="44" height="44" viewBox="0 0 44 44" fill="none" xmlns="http://www.w3.org/2000/svg">
<path fill-rule="evenodd" clip-rule="evenodd" d="M39.424 4.60533C35.2587 0.469333 29.304 0 22 0C14.696 0 8.712 0.469333 4.576 4.60533C0.440001 8.74133 0 14.7253 0 22.0293C0 29.3333 0.410668 35.288 4.576 39.4533C8.74133 43.6187 14.696 44 22 44C29.304 44 35.288 43.5893 39.424 39.424C43.56 35.2587 44 29.304 44 22C44 14.696 43.56 8.74133 39.424 4.60533Z" fill="url(#paint0_linear_62_31367)"/>
<path fill-rule="evenodd" clip-rule="evenodd" d="M19.8625 11.4156C18.2056 11.4156 16.8625 12.7588 16.8625 14.4156C15.5772 14.4175 14.8982 14.4429 14.3999 14.7759C14.1665 14.9318 13.9661 15.1322 13.8102 15.3656C13.45 15.9047 13.45 16.6552 13.45 18.1563V28.3094C13.45 30.3246 13.45 31.3323 14.076 31.9583C14.7021 32.5844 15.7097 32.5844 17.7249 32.5844H26.2749C28.2902 32.5844 29.2978 32.5844 29.9239 31.9583C30.5499 31.3323 30.5499 30.3246 30.5499 28.3094V18.1563C30.5499 16.6552 30.5499 15.9047 30.1897 15.3656C30.0338 15.1322 29.8334 14.9318 29.6 14.7759C29.1016 14.4429 28.4227 14.4177 27.1375 14.4158C27.1375 12.7589 25.7943 11.4156 24.1375 11.4156H19.8625ZM19.5009 14.2544C19.5012 13.8402 19.8372 13.5047 20.2514 13.505L23.7497 13.5076C24.1639 13.5079 24.4995 13.844 24.4991 14.2582C24.4988 14.6724 24.1628 15.0079 23.7486 15.0076L20.2503 15.005C19.8361 15.0047 19.5005 14.6686 19.5009 14.2544ZM18.7935 20.8971C18.2412 20.8971 17.7935 21.3448 17.7935 21.8971C17.7935 22.4494 18.2412 22.8971 18.7935 22.8971H25.206C25.7583 22.8971 26.206 22.4494 26.206 21.8971C26.206 21.3448 25.7583 20.8971 25.206 20.8971H18.7935ZM18.7935 25.1721C18.2412 25.1721 17.7935 25.6198 17.7935 26.1721C17.7935 26.7244 18.2412 27.1721 18.7935 27.1721H23.0685C23.6208 27.1721 24.0685 26.7244 24.0685 26.1721C24.0685 25.6198 23.6208 25.1721 23.0685 25.1721H18.7935Z" fill="white"/>
<defs>
<linearGradient id="paint0_linear_62_31367" x1="0" y1="0" x2="37" y2="44" gradientUnits="userSpaceOnUse">
<stop stop-color="#456FDD"/>
<stop offset="1" stop-color="#033AC9"/>
</linearGradient>
</defs>
</svg>
