<svg xmlns="http://www.w3.org/2000/svg" version="1.1" xmlns:xlink="http://www.w3.org/1999/xlink" xmlns:svgjs="http://svgjs.com/svgjs" width="512" height="512" x="0" y="0" viewBox="0 0 512.00082 512" style="enable-background:new 0 0 512 512" xml:space="preserve" class=""><defs><linearGradient id="a" gradientUnits="userSpaceOnUse" x1="0" x2="512.000475997" y1="255.9995979986" y2="255.9995979986"><stop offset="0" stop-color="#00f2fe"></stop><stop offset=".0208" stop-color="#03effe"></stop><stop offset=".2931" stop-color="#24d2fe"></stop><stop offset=".5538" stop-color="#3cbdfe"></stop><stop offset=".7956" stop-color="#4ab0fe"></stop><stop offset="1" stop-color="#4facfe"></stop></linearGradient></defs><g><linearGradient id="a" gradientUnits="userSpaceOnUse" x1="0" x2="512.000475997" y1="255.9995979986" y2="255.9995979986"><stop offset="0" stop-color="#00f2fe"></stop><stop offset=".0208" stop-color="#03effe"></stop><stop offset=".2931" stop-color="#24d2fe"></stop><stop offset=".5538" stop-color="#3cbdfe"></stop><stop offset=".7956" stop-color="#4ab0fe"></stop><stop offset="1" stop-color="#4facfe"></stop></linearGradient><path d="m512 120v142c0 11.046875-8.953125 20-20 20s-20-8.953125-20-20v-142c0-22.054688-17.945312-40-40-40h-26v20c0 11.046875-8.953125 20-20 20s-20-8.953125-20-20v-20h-91v20c0 11.046875-8.953125 20-20 20s-20-8.953125-20-20v-20h-90v20c0 11.046875-8.953125 20-20 20s-20-8.953125-20-20v-20h-25c-22.054688 0-40 17.945312-40 40v312c0 22.054688 17.945312 40 40 40h168c11.046875 0 20 8.953125 20 20s-8.953125 20-20 20h-168c-44.113281 0-80-35.886719-80-80v-312c0-44.113281 35.886719-80 80-80h25v-20c0-11.046875 8.953125-20 20-20s20 8.953125 20 20v20h90v-20c0-11.046875 8.953125-20 20-20s20 8.953125 20 20v20h91v-20c0-11.046875 8.953125-20 20-20s20 8.953125 20 20v20h26c44.109375 0 80 35.886719 80 80zm-367 90c0-11.046875-8.953125-20-20-20s-20 8.953125-20 20 8.953125 20 20 20 20-8.953125 20-20zm154 20c11.046875 0 20-8.953125 20-20s-8.953125-20-20-20-20 8.953125-20 20 8.953125 20 20 20zm87 0c11.046875 0 20-8.953125 20-20s-8.953125-20-20-20-20 8.953125-20 20 8.953125 20 20 20zm-241 67c0-11.046875-8.953125-20-20-20s-20 8.953125-20 20 8.953125 20 20 20 20-8.957031 20-20zm-20 67c-11.046875 0-20 8.953125-20 20s8.953125 20 20 20 20-8.953125 20-20-8.953125-20-20-20zm107-154c0-11.046875-8.953125-20-20-20s-20 8.953125-20 20 8.953125 20 20 20 20-8.953125 20-20zm0 87c0-11.046875-8.953125-20-20-20s-20 8.953125-20 20 8.953125 20 20 20 20-8.957031 20-20zm-20 67c-11.046875 0-20 8.953125-20 20s8.953125 20 20 20 20-8.953125 20-20-8.953125-20-20-20zm67-67c0 11.046875 8.953125 20 20 20s20-8.953125 20-20-8.953125-20-20-20-20 8.953125-20 20zm87 0c0 11.046875 8.953125 20 20 20s20-8.953125 20-20-8.953125-20-20-20-20 8.953125-20 20zm137.640625 28.738281c-8.980469-6.429687-21.472656-4.363281-27.902344 4.621094l-98.582031 137.699219c-2.691406 3.121094-6.066406 3.792968-7.871094 3.914062-1.859375.125-5.425781-.109375-8.566406-3.054687l-63.710938-62.175781c-7.90625-7.714844-20.570312-7.5625-28.285156.34375-7.710937 7.90625-7.558594 20.570312.347656 28.285156l63.820313 62.28125c.058594.054687.121094.113281.179687.171875 9.570313 9.105469 22.339844 14.171875 35.480469 14.171875 1.128907 0 2.261719-.035156 3.394531-.113282 14.3125-.953124 27.675782-7.914062 36.664063-19.097656.230469-.289062.457031-.582031.671875-.882812l98.980469-138.261719c6.429687-8.980469 4.359375-21.472656-4.621094-27.902344zm0 0" fill="url(&quot;#a&quot;)" data-original="url(#a)" class=""></path></g></svg>