<svg width="45" height="44" viewBox="0 0 45 44" fill="none" xmlns="http://www.w3.org/2000/svg">
<path fill-rule="evenodd" clip-rule="evenodd" d="M40.049 4.60533C35.8837 0.469333 29.929 0 22.625 0C15.321 0 9.337 0.469333 5.201 4.60533C1.065 8.74133 0.625 14.7253 0.625 22.0293C0.625 29.3333 1.03567 35.288 5.201 39.4533C9.36633 43.6187 15.321 44 22.625 44C29.929 44 35.913 43.5893 40.049 39.424C44.185 35.2587 44.625 29.304 44.625 22C44.625 14.696 44.185 8.74133 40.049 4.60533Z" fill="url(#paint0_linear_26_22672)"/>
<path fill-rule="evenodd" clip-rule="evenodd" d="M26.7393 12.8964C27.2915 12.8964 27.7393 13.3442 27.7393 13.8964L27.7393 16.8964C27.7393 17.4487 27.2915 17.8964 26.7393 17.8964C26.187 17.8964 25.7393 17.4487 25.7393 16.8964L25.7393 13.8964C25.7393 13.3442 26.187 12.8964 26.7393 12.8964ZM18.7393 12.8964C19.2915 12.8964 19.7393 13.3442 19.7393 13.8964L19.7393 16.8964C19.7393 17.4487 19.2915 17.8964 18.7393 17.8964C18.187 17.8964 17.7393 17.4487 17.7393 16.8964L17.7393 13.8964C17.7393 13.3442 18.187 12.8964 18.7393 12.8964Z" fill="white"/>
<path fill-rule="evenodd" clip-rule="evenodd" d="M20.7393 14.8325H24.7393L24.7393 16.8325C24.7393 17.937 25.6347 18.8325 26.7393 18.8325C27.8438 18.8325 28.7393 17.937 28.7393 16.8325L28.7393 14.935C29.4612 15.0423 29.9228 15.2619 30.3721 15.7112C31.2508 16.5898 31.2508 17.2751 31.2508 20.1036V25.1036C31.2508 27.932 31.2508 29.3462 30.3721 30.2249C29.4934 31.1036 28.5677 31.1036 25.7393 31.1036H19.7393C16.9109 31.1036 15.7574 31.1036 14.8787 30.2249C14 29.3462 14 27.932 14 25.1036V22.6036V20.8325C14 18.0041 14 16.5898 14.8787 15.7112C15.3488 15.2411 15.8975 15.0225 16.7393 14.9208L16.7393 16.8325C16.7393 17.9371 17.6347 18.8325 18.7393 18.8325C19.8438 18.8325 20.7393 17.9371 20.7393 16.8325L20.7393 14.8325ZM26.7393 22.6036C27.1298 22.213 27.1298 21.5799 26.7393 21.1893C26.3487 20.7988 25.7156 20.7988 25.325 21.1893L22.0321 24.4822L20.7393 23.1893C20.3487 22.7988 19.7156 22.7988 19.325 23.1893C18.9345 23.5799 18.9345 24.213 19.325 24.6036L21.325 26.6036C21.5126 26.7911 21.7669 26.8964 22.0321 26.8964C22.2974 26.8964 22.5517 26.7911 22.7393 26.6036L26.7393 22.6036Z" fill="white"/>
<defs>
<linearGradient id="paint0_linear_26_22672" x1="45" y1="-1.8839e-06" x2="8" y2="38.5" gradientUnits="userSpaceOnUse">
<stop stop-color="#03DFDF"/>
<stop offset="1" stop-color="#1BACBF"/>
</linearGradient>
</defs>
</svg>
