<svg width="45" height="44" viewBox="0 0 45 44" fill="none" xmlns="http://www.w3.org/2000/svg">
<path fill-rule="evenodd" clip-rule="evenodd" d="M39.549 4.60533C35.3837 0.469333 29.429 0 22.125 0C14.821 0 8.837 0.469333 4.701 4.60533C0.565001 8.74133 0.125 14.7253 0.125 22.0293C0.125 29.3333 0.535668 35.288 4.701 39.4533C8.86633 43.6187 14.821 44 22.125 44C29.429 44 35.413 43.5893 39.549 39.424C43.685 35.2587 44.125 29.304 44.125 22C44.125 14.696 43.685 8.74133 39.549 4.60533Z" fill="url(#paint0_linear_255_40004)"/>
<path d="M14.1207 22C14.1207 16.8919 18.2533 12.75 23.3677 12.75C28.4821 12.75 32.625 16.8919 32.625 22C32.625 27.1081 28.4821 31.25 23.3677 31.25C21.1829 31.25 19.1785 30.4907 17.599 29.2229C17.1561 28.8675 17.1599 28.2115 17.5614 27.8101C17.9634 27.4082 18.6115 27.4151 19.0661 27.7564C20.2653 28.657 21.7544 29.1944 23.3728 29.1944C27.3461 29.1944 30.5689 25.9723 30.5689 22C30.5689 18.0277 27.3461 14.8056 23.3728 14.8056C19.3996 14.8056 16.1767 18.0277 16.1767 22V22.1598L17.3869 20.961C17.6893 20.6613 18.1775 20.6635 18.4772 20.9659C18.7769 21.2683 18.7747 21.7564 18.4722 22.0561L15.6737 24.8285C15.5282 24.9726 15.3314 25.053 15.1266 25.0518C14.9218 25.0506 14.7259 24.968 14.5821 24.8223L11.8471 22.0498C11.5481 21.7467 11.5514 21.2586 11.8546 20.9597C12.1578 20.6608 12.646 20.6641 12.945 20.9672L14.1207 22.1591L14.1207 22Z" fill="white"/>
<path fill-rule="evenodd" clip-rule="evenodd" d="M21.7861 23.0278C21.7861 23.1334 21.8418 23.2312 21.9326 23.2851L25.708 25.5251C26.195 25.8141 26.8242 25.6534 27.113 25.1662C27.4015 24.6794 27.2408 24.0508 26.7539 23.7622L23.9267 22.0865V18.6597C23.9267 18.0688 23.4475 17.5897 22.8564 17.5897C22.2653 17.5897 21.7861 18.0688 21.7861 18.6597V23.0278Z" fill="white"/>
<defs>
<linearGradient id="paint0_linear_255_40004" x1="36" y1="1.17474e-06" x2="10.5" y2="39" gradientUnits="userSpaceOnUse">
<stop stop-color="#4BDF8A"/>
<stop offset="1" stop-color="#27AE60" stop-opacity="0.96"/>
</linearGradient>
</defs>
</svg>
