<svg width="45" height="44" viewBox="0 0 45 44" fill="none" xmlns="http://www.w3.org/2000/svg">
<path fill-rule="evenodd" clip-rule="evenodd" d="M39.549 4.60533C35.3837 0.469333 29.429 0 22.125 0C14.821 0 8.837 0.469333 4.701 4.60533C0.565001 8.74133 0.125 14.7253 0.125 22.0293C0.125 29.3333 0.535668 35.288 4.701 39.4533C8.86633 43.6187 14.821 44 22.125 44C29.429 44 35.413 43.5893 39.549 39.424C43.685 35.2587 44.125 29.304 44.125 22C44.125 14.696 43.685 8.74133 39.549 4.60533Z" fill="url(#paint0_linear_62_31390)"/>
<path fill-rule="evenodd" clip-rule="evenodd" d="M31.5509 16.1283C31.5512 16.2225 31.5319 16.3157 31.4943 16.402C31.4599 16.4898 31.4086 16.5699 31.3433 16.6379L28.9562 19.025C28.8207 19.1558 28.6397 19.229 28.4514 19.229C28.263 19.229 28.082 19.1558 27.9466 19.025C27.8793 18.9583 27.8258 18.8789 27.7893 18.7915C27.7529 18.704 27.7341 18.6102 27.7341 18.5155C27.7341 18.4207 27.7529 18.3269 27.7893 18.2395C27.8258 18.152 27.8793 18.0726 27.9466 18.006L29.0977 16.8454H26.0501C25.8607 16.843 25.6797 16.7667 25.5457 16.6327C25.4118 16.4987 25.3355 16.3178 25.333 16.1283C25.3355 15.9389 25.4118 15.7579 25.5457 15.624C25.6797 15.49 25.8607 15.4137 26.0501 15.4113H29.0977L27.9371 14.2413C27.8701 14.1754 27.8169 14.0969 27.7805 14.0102C27.7442 13.9235 27.7254 13.8305 27.7254 13.7365C27.7254 13.6425 27.7442 13.5495 27.7805 13.4628C27.8169 13.3761 27.8701 13.2976 27.9371 13.2317C28.003 13.1647 28.0816 13.1114 28.1682 13.0751C28.2549 13.0387 28.348 13.02 28.4419 13.02C28.5359 13.02 28.629 13.0387 28.7156 13.0751C28.8023 13.1114 28.8809 13.1647 28.9467 13.2317L31.3339 15.6188C31.3978 15.6843 31.449 15.7611 31.4848 15.8453C31.525 15.9345 31.5474 16.0306 31.5509 16.1283Z" fill="white"/>
<path fill-rule="evenodd" clip-rule="evenodd" d="M29.5695 20.0538C29.2041 20.3261 28.7525 20.4571 28.2982 20.4224C27.8438 20.3877 27.4173 20.1897 27.0975 19.8651C26.8632 19.6313 26.6945 19.3399 26.6083 19.0203C26.5222 18.7006 26.5217 18.364 26.6068 18.0441H26.0596C25.5591 18.0441 25.0791 17.8453 24.7252 17.4914C24.3713 17.1375 24.1725 16.6575 24.1725 16.157C24.1704 15.852 24.2423 15.5511 24.382 15.2799C24.5217 15.0088 24.725 14.7756 24.9745 14.6002C23.8287 14.051 22.5749 13.7641 21.3042 13.7605C20.1734 13.7605 19.0537 13.9833 18.009 14.4164C16.9644 14.8494 16.0154 15.4841 15.2162 16.2841C14.4171 17.0842 13.7834 18.0339 13.3515 19.079C12.9196 20.1241 12.698 21.2441 12.6992 22.3749C12.6992 24.6571 13.6058 26.8458 15.2196 28.4595C16.8333 30.0733 19.022 30.9799 21.3042 30.9799C23.5848 30.9774 25.771 30.0697 27.3827 28.4562C28.9945 26.8427 29.8998 24.6554 29.8997 22.3749C29.8951 21.5898 29.784 20.809 29.5695 20.0538ZM21.3827 17.4458C21.631 17.4458 21.8793 17.6941 21.8793 17.9424V18.5217H23.369C23.6173 18.5217 23.8656 18.77 23.8656 19.0183V19.1838C23.8656 19.4321 23.6173 19.6804 23.369 19.6804H20.1412C19.8929 19.6804 19.6446 19.846 19.4791 20.0115C19.2308 20.2598 19.148 20.5081 19.148 20.7564C19.148 21.0047 19.3135 21.253 19.4791 21.4185C19.6446 21.584 19.8929 21.7495 20.1412 21.7495H22.3758C22.9552 21.7495 23.5345 21.9151 23.9484 22.4117C24.3622 22.7427 24.6105 23.3221 24.6105 23.9014C24.6105 24.4808 24.445 24.9774 24.1139 25.3912C23.7828 25.805 23.2035 26.0533 22.6241 26.0533H22.0448V26.7982C22.0448 27.0465 21.7965 27.2948 21.5482 27.2948H21.2999C21.0516 27.2948 20.8033 27.0465 20.8033 26.7982V26.0533H18.9825C18.7342 26.0533 18.4859 25.805 18.4859 25.5567V25.3084C18.4859 25.0601 18.6514 24.8946 18.8997 24.8946H22.3758C22.7069 24.8946 22.9552 24.8118 23.1207 24.7291C23.369 24.4808 23.4518 24.2325 23.4518 23.9842C23.4518 23.6531 23.2863 23.4048 23.1207 23.2393C22.8724 22.991 22.6241 22.9083 22.3758 22.9083H20.1412C19.6446 22.9083 19.0653 22.66 18.6514 22.2461C18.2376 21.9151 17.9893 21.3357 17.9893 20.7564C17.9893 20.177 18.2376 19.5977 18.6514 19.2666C18.9825 18.8528 19.5618 18.6045 20.1412 18.6045H20.7205V17.9424C20.7205 17.6941 20.8861 17.4458 21.1344 17.4458H21.3827Z" fill="white"/>
<defs>
<linearGradient id="paint0_linear_62_31390" x1="-4.53173e-07" y1="2.32825e-07" x2="36" y2="36.5" gradientUnits="userSpaceOnUse">
<stop stop-color="#EB5757" stop-opacity="0.73"/>
<stop offset="1" stop-color="#DE3F3F"/>
</linearGradient>
</defs>
</svg>
