<svg width="44" height="44" viewBox="0 0 44 44" fill="none" xmlns="http://www.w3.org/2000/svg">
<path fill-rule="evenodd" clip-rule="evenodd" d="M39.424 4.60533C35.2587 0.469333 29.304 0 22 0C14.696 0 8.712 0.469333 4.576 4.60533C0.440001 8.74133 0 14.7253 0 22.0293C0 29.3333 0.410668 35.288 4.576 39.4533C8.74133 43.6187 14.696 44 22 44C29.304 44 35.288 43.5893 39.424 39.424C43.56 35.2587 44 29.304 44 22C44 14.696 43.56 8.74133 39.424 4.60533Z" fill="url(#paint0_linear_1037_78648)"/>
<path d="M15.0933 14.3945C15.0928 14.3945 15.0922 14.3945 15.0916 14.3945C14.9033 14.3945 14.7262 14.4679 14.5925 14.6013C14.4573 14.7362 14.3828 14.9158 14.3828 15.107V25.7899C14.3828 26.1817 14.7028 26.5012 15.0961 26.5022C16.7544 26.5061 19.5327 26.8518 21.4494 28.8575V17.6775C21.4494 17.5447 21.4155 17.4199 21.3515 17.3167C19.7784 14.7833 16.7554 14.3984 15.0933 14.3945Z" fill="white"/>
<path d="M29.6212 25.79V15.107C29.6212 14.9158 29.5467 14.7362 29.4115 14.6013C29.2778 14.4679 29.1005 14.3945 28.9124 14.3945C28.9118 14.3945 28.9112 14.3945 28.9107 14.3945C27.2487 14.3985 24.2257 14.7834 22.6526 17.3168C22.5885 17.42 22.5547 17.5448 22.5547 17.6775V28.8575C24.4713 26.8518 27.2497 26.5061 28.908 26.5022C29.3012 26.5012 29.6212 26.1817 29.6212 25.79Z" fill="white"/>
<path d="M31.2446 16.8574H30.7281V25.7892C30.7281 26.7894 29.9131 27.605 28.9114 27.6075C27.5048 27.6108 25.1855 27.8859 23.543 29.4405C26.3838 28.7449 29.3785 29.1971 31.0852 29.586C31.2983 29.6345 31.5185 29.5844 31.6892 29.4483C31.8593 29.3126 31.9569 29.1097 31.9569 28.8919V17.5697C31.957 17.177 31.6374 16.8574 31.2446 16.8574Z" fill="white"/>
<path d="M13.2758 25.7892V16.8574H12.7592C12.3665 16.8574 12.0469 17.177 12.0469 17.5697V28.8917C12.0469 29.1095 12.1445 29.3124 12.3146 29.4481C12.4852 29.5841 12.7052 29.6345 12.9187 29.5858C14.6254 29.1968 17.6201 28.7447 20.4608 29.4403C18.8183 27.8858 16.499 27.6108 15.0925 27.6074C14.0908 27.605 13.2758 26.7894 13.2758 25.7892Z" fill="white"/>
<defs>
<linearGradient id="paint0_linear_1037_78648" x1="36.5" y1="1.46438e-06" x2="8.5" y2="39" gradientUnits="userSpaceOnUse">
<stop stop-color="#75CF3E" stop-opacity="0.99"/>
<stop offset="1" stop-color="#82AF21"/>
</linearGradient>
</defs>
</svg>
