<svg width="45" height="44" viewBox="0 0 45 44" fill="none" xmlns="http://www.w3.org/2000/svg">
<path fill-rule="evenodd" clip-rule="evenodd" d="M40.049 4.60533C35.8837 0.469333 29.929 0 22.625 0C15.321 0 9.337 0.469333 5.201 4.60533C1.065 8.74133 0.625 14.7253 0.625 22.0293C0.625 29.3333 1.03567 35.288 5.201 39.4533C9.36633 43.6187 15.321 44 22.625 44C29.929 44 35.913 43.5893 40.049 39.424C44.185 35.2587 44.625 29.304 44.625 22C44.625 14.696 44.185 8.74133 40.049 4.60533Z" fill="url(#paint0_linear_62_31384)"/>
<path d="M28.8664 26.1747C27.5559 26.1747 26.4897 25.1086 26.4897 23.798C26.4897 22.4875 27.5559 21.4213 28.8664 21.4213C30.177 21.4213 31.2431 22.4875 31.2431 23.798C31.2431 25.1086 30.177 26.1747 28.8664 26.1747Z" fill="white"/>
<path d="M16.3835 26.1747C15.073 26.1747 14.0068 25.1086 14.0068 23.798C14.0068 22.4875 15.073 21.4213 16.3835 21.4213C17.6941 21.4213 18.7602 22.4875 18.7602 23.798C18.7602 25.1086 17.6941 26.1747 16.3835 26.1747Z" fill="white"/>
<path d="M26.7584 13.0719C25.9749 13.0719 25.2705 12.6366 24.9202 11.9359L24.8329 11.7613C24.7279 11.5512 24.5132 11.4185 24.2783 11.4185H20.9716C20.7368 11.4185 20.5221 11.5512 20.417 11.7613L20.3298 11.9358C19.9794 12.6366 19.2751 13.0719 18.4916 13.0719C18.1492 13.0719 17.8716 13.3495 17.8716 13.6919V17.2299C17.8716 18.621 18.3105 19.9462 19.1409 21.0623C19.9712 22.1783 21.1144 22.9795 22.4468 23.3792C22.5049 23.3966 22.565 23.4053 22.625 23.4053C22.685 23.4053 22.745 23.3966 22.8031 23.3792C24.1355 22.9795 25.2787 22.1783 26.1091 21.0623C26.9394 19.9462 27.3784 18.621 27.3784 17.2299V13.6919C27.3784 13.3495 27.1008 13.0719 26.7584 13.0719ZM24.817 16.6812L22.4789 19.0194C22.3578 19.1405 22.1991 19.201 22.0405 19.201C21.8818 19.201 21.7231 19.1405 21.6021 19.0194L20.433 17.8503C20.1909 17.6082 20.1909 17.2156 20.433 16.9735C20.6751 16.7314 21.0677 16.7314 21.3098 16.9735L22.0405 17.7042L23.9403 15.8044C24.1824 15.5623 24.575 15.5623 24.8171 15.8044C25.0592 16.0466 25.0592 16.4391 24.817 16.6812Z" fill="white"/>
<path d="M31.4018 26.3745C30.7486 27.0174 29.8531 27.4148 28.8664 27.4148C27.8781 27.4148 26.9813 27.0162 26.3278 26.3714C25.9809 26.6213 25.6722 26.9211 25.4128 27.2611L25.7535 27.5595C26.7861 28.4639 27.3783 29.7671 27.3783 31.1348V32.5815H32.5864C32.9288 32.5815 33.2064 32.3039 33.2064 31.9615V29.8948C33.2064 28.4474 32.4941 27.1635 31.4018 26.3745Z" fill="white"/>
<path d="M13.8481 26.3745C12.7558 27.1635 12.0435 28.4474 12.0435 29.8948V31.9615C12.0435 32.3039 12.3211 32.5815 12.6635 32.5815H17.8715V31.1348C17.8715 29.767 18.4638 28.4639 19.4964 27.5595L19.837 27.2611C19.5777 26.921 19.2689 26.6213 18.9221 26.3714C18.2686 27.0162 17.3718 27.4147 16.3835 27.4147C15.3968 27.4147 14.5013 27.0174 13.8481 26.3745Z" fill="white"/>
<path d="M24.9365 28.4923C24.353 29.1011 23.5328 29.4814 22.6249 29.4814C21.7171 29.4814 20.8969 29.1011 20.3134 28.4923C19.5776 29.1368 19.1116 30.0821 19.1116 31.1348V32.5815H26.1383V31.1348C26.1383 30.0821 25.6723 29.1368 24.9365 28.4923Z" fill="white"/>
<path d="M22.625 28.2414C21.5424 28.2414 20.6616 27.3607 20.6616 26.278C20.6616 25.1954 21.5424 24.3147 22.625 24.3147C23.7076 24.3147 24.5883 25.1954 24.5883 26.278C24.5883 27.3607 23.7076 28.2414 22.625 28.2414Z" fill="white"/>
<defs>
<linearGradient id="paint0_linear_62_31384" x1="7" y1="2" x2="45" y2="44" gradientUnits="userSpaceOnUse">
<stop stop-color="#EF5DA8" stop-opacity="0.85"/>
<stop offset="1" stop-color="#F04BA0"/>
</linearGradient>
</defs>
</svg>
