<svg width="44" height="42" viewBox="0 0 44 42" fill="none" xmlns="http://www.w3.org/2000/svg">
<path fill-rule="evenodd" clip-rule="evenodd" d="M35.84 6.18667C32.0533 2.42667 26.64 2 20 2C13.36 2 7.92 2.42667 4.16 6.18667C0.400001 9.94667 0 15.3867 0 22.0267C0 28.6667 0.373335 34.08 4.16 37.8667C7.94667 41.6533 13.36 42 20 42C26.64 42 32.08 41.6267 35.84 37.84C39.6 34.0533 40 28.64 40 22C40 15.36 39.6 9.94667 35.84 6.18667Z" fill="#EBF0FF"/>
<path d="M28.5 26.9509C28.5 25.694 26.8369 25.0288 26.8369 23.7718V19.7255C26.8369 15.735 23.7663 12.5 19.9786 12.5C16.1908 12.5 13.1203 15.735 13.1203 19.7255V23.8181C13.1203 25.0495 11.5 25.7195 11.5 26.9509C11.5 27.4497 11.8838 27.8541 12.3573 27.8541H27.6427C28.1162 27.8541 28.5 27.4497 28.5 26.9509Z" fill="#0353B4"/>
<path d="M17.0501 28.8777C17.0501 29.2221 17.127 29.5631 17.2766 29.8812C17.4261 30.1994 17.6452 30.4885 17.9215 30.732C18.1977 30.9755 18.5257 31.1686 18.8866 31.3004C19.2476 31.4322 19.6344 31.5 20.0251 31.5C20.4158 31.5 20.8026 31.4322 21.1636 31.3004C21.5245 31.1686 21.8525 30.9755 22.1287 30.732C22.405 30.4885 22.6241 30.1994 22.7736 29.8812C22.9231 29.5631 23.0001 29.2221 23.0001 28.8777H17.0501Z" fill="#0353B4"/>
<circle cx="36" cy="8" r="8" fill="url(#paint0_linear_673_15517)"/>
<path d="M31 7.27534V11.25C31 11.6642 31.3358 12 31.75 12H40.25C40.6642 12 41 11.6642 41 11.25V7.27534L37.2907 8.53987C36.4539 8.82515 35.5461 8.82515 34.7093 8.53987L31 7.27534Z" fill="white"/>
<path d="M41 6.48295V5.25C41 4.83579 40.6642 4.5 40.25 4.5H31.75C31.3358 4.5 31 4.83579 31 5.25V6.48295L34.7093 7.74749C35.5461 8.03277 36.4539 8.03277 37.2907 7.74749L41 6.48295Z" fill="white"/>
<defs>
<linearGradient id="paint0_linear_673_15517" x1="36" y1="0" x2="36" y2="16" gradientUnits="userSpaceOnUse">
<stop stop-color="#FF9431" stop-opacity="0.68"/>
<stop offset="1" stop-color="#F37128"/>
</linearGradient>
</defs>
</svg>
