<svg width="44" height="42" viewBox="0 0 44 42" fill="none" xmlns="http://www.w3.org/2000/svg">
<path fill-rule="evenodd" clip-rule="evenodd" d="M35.84 6.18667C32.0533 2.42667 26.64 2 20 2C13.36 2 7.92 2.42667 4.16 6.18667C0.400001 9.94667 0 15.3867 0 22.0267C0 28.6667 0.373335 34.08 4.16 37.8667C7.94667 41.6533 13.36 42 20 42C26.64 42 32.08 41.6267 35.84 37.84C39.6 34.0533 40 28.64 40 22C40 15.36 39.6 9.94667 35.84 6.18667Z" fill="#EBF0FF"/>
<path d="M28.5 26.9509C28.5 25.694 26.8369 25.0288 26.8369 23.7718V19.7255C26.8369 15.735 23.7663 12.5 19.9786 12.5C16.1908 12.5 13.1203 15.735 13.1203 19.7255V23.8181C13.1203 25.0495 11.5 25.7195 11.5 26.9509C11.5 27.4497 11.8838 27.8541 12.3573 27.8541H27.6427C28.1162 27.8541 28.5 27.4497 28.5 26.9509Z" fill="#0353B4"/>
<path d="M17.0501 28.8777C17.0501 29.2221 17.127 29.5631 17.2766 29.8812C17.4261 30.1994 17.6452 30.4885 17.9215 30.732C18.1977 30.9755 18.5257 31.1686 18.8866 31.3004C19.2476 31.4322 19.6344 31.5 20.0251 31.5C20.4158 31.5 20.8026 31.4322 21.1636 31.3004C21.5245 31.1686 21.8525 30.9755 22.1287 30.732C22.405 30.4885 22.6241 30.1994 22.7736 29.8812C22.9231 29.5631 23.0001 29.2221 23.0001 28.8777H17.0501Z" fill="#0353B4"/>
<circle cx="36" cy="8" r="8" fill="url(#paint0_linear_673_16502)"/>
<path fill-rule="evenodd" clip-rule="evenodd" d="M37.9695 9.60218H35.2442L33.3913 10.9198C33.0561 11.1582 32.5916 10.9185 32.5916 10.5072V9.60218H32.519C31.6801 9.60218 31 8.9221 31 8.08318V4.519C31 3.68008 31.6801 3 32.519 3H37.9695C38.8084 3 39.4885 3.68008 39.4885 4.519V8.08318C39.4885 8.9221 38.8084 9.60218 37.9695 9.60218ZM32.8867 6.30104C32.8867 6.04059 33.0979 5.82945 33.3583 5.82945C33.6187 5.82945 33.8299 6.04059 33.8299 6.30104C33.8299 6.56149 33.6187 6.77262 33.3583 6.77262C33.0979 6.77262 32.8867 6.56149 32.8867 6.30104ZM34.7725 6.30104C34.7725 6.04059 34.9836 5.82945 35.244 5.82945C35.5045 5.82945 35.7156 6.04059 35.7156 6.30104C35.7156 6.56149 35.5045 6.77262 35.244 6.77262C34.9836 6.77262 34.7725 6.56149 34.7725 6.30104ZM37.1308 5.82945C36.8703 5.82945 36.6592 6.04059 36.6592 6.30104C36.6592 6.56149 36.8703 6.77262 37.1308 6.77262C37.3912 6.77262 37.6023 6.56149 37.6023 6.30104C37.6023 6.04059 37.3912 5.82945 37.1308 5.82945Z" fill="white"/>
<path d="M40.2405 6.038C40.2405 5.82827 40.4105 5.65825 40.6203 5.65825C40.83 5.65825 41 5.82827 41 6.038V9.86693C41 10.6359 40.3766 11.2593 39.6076 11.2593H39.5635V11.9166C39.5635 12.4188 38.9703 12.6854 38.5947 12.3521L37.3636 11.2593H35.557C35.3472 11.2593 35.1772 11.0893 35.1772 10.8796C35.1772 10.6699 35.3472 10.4998 35.557 10.4998H37.652L38.804 11.5223V10.4998H39.6076C39.9571 10.4998 40.2405 10.2165 40.2405 9.86693V6.038Z" fill="white"/>
<defs>
<linearGradient id="paint0_linear_673_16502" x1="41" y1="3" x2="30" y2="13.5" gradientUnits="userSpaceOnUse">
<stop offset="0.0423137" stop-color="#00BF13" stop-opacity="0.52"/>
<stop offset="1" stop-color="#00C21F"/>
</linearGradient>
</defs>
</svg>
