<svg width="21" height="19" viewBox="0 0 21 19" fill="none" xmlns="http://www.w3.org/2000/svg">
<path fill-rule="evenodd" clip-rule="evenodd" d="M14.4389 13.2044H8.98846L5.28269 15.8396C4.61223 16.3164 3.68317 15.837 3.68317 15.0143V13.2044H3.53798C1.86015 13.2044 0.5 11.8442 0.5 10.1664V3.038C0.5 1.36016 1.86015 0 3.53797 0H14.4389C16.1168 0 17.4769 1.36016 17.4769 3.038V10.1664C17.4769 11.8442 16.1168 13.2044 14.4389 13.2044ZM4.27344 6.60207C4.27344 6.08118 4.69571 5.65891 5.2166 5.65891C5.73749 5.65891 6.15976 6.08118 6.15976 6.60207C6.15976 7.12297 5.73749 7.54524 5.2166 7.54524C4.69571 7.54524 4.27344 7.12297 4.27344 6.60207ZM8.04492 6.60207C8.04492 6.08118 8.46719 5.65891 8.98808 5.65891C9.50898 5.65891 9.93125 6.08118 9.93125 6.60207C9.93125 7.12297 9.50898 7.54524 8.98808 7.54524C8.46719 7.54524 8.04492 7.12297 8.04492 6.60207ZM12.7615 5.65891C12.2406 5.65891 11.8184 6.08118 11.8184 6.60207C11.8184 7.12297 12.2406 7.54524 12.7615 7.54524C13.2824 7.54524 13.7047 7.12297 13.7047 6.60207C13.7047 6.08118 13.2824 5.65891 12.7615 5.65891Z" fill="#0353B4"/>
<path d="M18.981 6.07599C18.981 5.65653 19.3211 5.31649 19.7405 5.31649C20.16 5.31649 20.5 5.65653 20.5 6.07599V13.7339C20.5 15.2719 19.2532 16.5187 17.7152 16.5187H17.627V17.8332C17.627 18.8376 16.4406 19.3709 15.6894 18.7041L13.2272 16.5187H9.61392C9.19447 16.5187 8.85443 16.1786 8.85443 15.7592C8.85443 15.3397 9.19447 14.9997 9.61392 14.9997H13.8041L16.108 17.0447V14.9997H17.7152C18.4143 14.9997 18.981 14.433 18.981 13.7339V6.07599Z" fill="#0353B4"/>
</svg>
