<svg width="25" height="24" viewBox="0 0 25 24" fill="none" xmlns="http://www.w3.org/2000/svg">
<path d="M21 16.9509C21 15.694 19.3369 15.0288 19.3369 13.7718V9.72547C19.3369 5.73495 16.2663 2.5 12.4786 2.5C8.69084 2.5 5.62027 5.73495 5.62027 9.72547V13.8181C5.62027 15.0495 4 15.7195 4 16.9509C4 17.4497 4.38382 17.8541 4.85729 17.8541H20.1427C20.6162 17.8541 21 17.4497 21 16.9509Z" fill="#0353B4"/>
<path d="M9.55009 18.8777C9.55009 19.2221 9.62705 19.5631 9.77655 19.8812C9.92606 20.1994 10.1452 20.4885 10.4215 20.732C10.6977 20.9755 11.0257 21.1686 11.3866 21.3004C11.7476 21.4322 12.1344 21.5 12.5251 21.5C12.9158 21.5 13.3026 21.4322 13.6636 21.3004C14.0245 21.1686 14.3525 20.9755 14.6287 20.732C14.905 20.4885 15.1241 20.1994 15.2736 19.8812C15.4231 19.5631 15.5001 19.2221 15.5001 18.8777H9.55009Z" fill="#0353B4"/>
</svg>
