<svg width="45" height="44" viewBox="0 0 45 44" fill="none" xmlns="http://www.w3.org/2000/svg">
<path fill-rule="evenodd" clip-rule="evenodd" d="M40.049 4.60533C35.8837 0.469333 29.929 0 22.625 0C15.321 0 9.337 0.469333 5.201 4.60533C1.065 8.74133 0.625 14.7253 0.625 22.0293C0.625 29.3333 1.03567 35.288 5.201 39.4533C9.36633 43.6187 15.321 44 22.625 44C29.929 44 35.913 43.5893 40.049 39.424C44.185 35.2587 44.625 29.304 44.625 22C44.625 14.696 44.185 8.74133 40.049 4.60533Z" fill="url(#paint0_linear_62_31384)"/>
<path d="M29.0692 12.5379C28.8638 12.3325 28.5125 12.478 28.5125 12.7685V15.8411C28.5125 16.0211 28.6585 16.1671 28.8386 16.1671H31.911C32.2014 16.1671 32.3469 15.8159 32.1415 15.6105L29.0692 12.5379Z" fill="white"/>
<path d="M28.0358 17.1301C27.7157 17.1301 27.4561 16.8705 27.4561 16.5504V12.1056H19.1464C18.1874 12.1056 17.4071 12.8859 17.4071 13.8449V20.326C17.5981 20.3087 17.7914 20.2994 17.9869 20.2994C19.963 20.2994 21.7319 21.2029 22.9026 22.6184H29.1953C29.5155 22.6184 29.7751 22.878 29.7751 23.1982C29.7751 23.5183 29.5155 23.7779 29.1953 23.7779H23.6664C24.0288 24.485 24.2625 25.2684 24.3375 26.0969H29.1953C29.5155 26.0969 29.7751 26.3565 29.7751 26.6766C29.7751 26.9968 29.5155 27.2564 29.1953 27.2564H24.3375C24.1641 29.1711 23.1411 30.8441 21.6493 31.8944H30.7413C31.7004 31.8944 32.4806 31.1142 32.4806 30.1551V17.1301H28.0358ZM29.1953 20.2994H20.6924C20.3722 20.2994 20.1126 20.0398 20.1126 19.7197C20.1126 19.3995 20.3722 19.1399 20.6924 19.1399H29.1953C29.5155 19.1399 29.7751 19.3995 29.7751 19.7197C29.7751 20.0398 29.5155 20.2994 29.1953 20.2994Z" fill="white"/>
<path d="M17.987 21.4587C15.11 21.4587 12.7693 23.7994 12.7693 26.6765C12.7693 29.5535 15.11 31.8942 17.987 31.8942C20.8641 31.8942 23.2048 29.5535 23.2048 26.6765C23.2048 23.7994 20.8641 21.4587 17.987 21.4587ZM19.533 27.2562H17.987C17.6668 27.2562 17.4073 26.9966 17.4073 26.6765V24.3575C17.4073 24.0373 17.6668 23.7777 17.987 23.7777C18.3072 23.7777 18.5668 24.0373 18.5668 24.3575V26.0967H19.533C19.8532 26.0967 20.1128 26.3563 20.1128 26.6765C20.1128 26.9966 19.8532 27.2562 19.533 27.2562Z" fill="white"/>
<defs>
<linearGradient id="paint0_linear_62_31384" x1="7" y1="2" x2="45" y2="44" gradientUnits="userSpaceOnUse">
<stop stop-color="#EF5DA8" stop-opacity="0.85"/>
<stop offset="1" stop-color="#F04BA0"/>
</linearGradient>
</defs>
</svg>
