<svg width="44" height="44" viewBox="0 0 44 44" fill="none" xmlns="http://www.w3.org/2000/svg">
<path fill-rule="evenodd" clip-rule="evenodd" d="M39.424 4.60533C35.2587 0.469333 29.304 0 22 0C14.696 0 8.712 0.469333 4.576 4.60533C0.440001 8.74133 0 14.7253 0 22.0293C0 29.3333 0.410668 35.288 4.576 39.4533C8.74133 43.6187 14.696 44 22 44C29.304 44 35.288 43.5893 39.424 39.424C43.56 35.2587 44 29.304 44 22C44 14.696 43.56 8.74133 39.424 4.60533Z" fill="url(#paint0_linear_383_46924)"/>
<path fill-rule="evenodd" clip-rule="evenodd" d="M28.9506 20.6724L26.6809 22.9641C26.5907 23.0552 26.4777 23.1198 26.354 23.151L22.5534 24.1104C22.3136 24.1709 22.0599 24.1 21.8851 23.9235C21.7103 23.747 21.6401 23.4909 21.7 23.2487L21.804 22.8289L16.7531 22.8289C16.2997 22.8289 15.9321 22.4578 15.9321 22C15.9321 21.5422 16.2997 21.1711 16.7531 21.1711L22.2145 21.1711L22.6502 19.4113C22.6811 19.2864 22.7451 19.1723 22.8353 19.0812L23.3458 18.5658L16.7531 18.5658C16.2997 18.5658 15.9321 18.1947 15.9321 17.7368C15.9321 17.279 16.2997 16.9079 16.7531 16.9079L24.9877 16.9079L28.3539 13.5091C28.0187 13.1933 27.5687 13 27.0741 13H14.8765C13.8402 13 13 13.8483 13 14.8947V30.1053C13 31.1517 13.8402 32 14.8765 32H27.0741C28.1105 32 28.9506 31.1517 28.9506 30.1053V20.6724ZM15.9321 26.2632C15.9321 25.8053 16.2997 25.4342 16.7531 25.4342L20.5062 25.4342C20.9596 25.4342 21.3272 25.8053 21.3272 26.2632C21.3272 26.721 20.9596 27.0921 20.5062 27.0921L16.7531 27.0921C16.2997 27.0921 15.9321 26.721 15.9321 26.2632Z" fill="white"/>
<path d="M30.6881 13.7105C30.3402 13.7105 30.0065 13.8501 29.7605 14.0985L24.152 19.7613C24.0318 19.8828 23.9465 20.0349 23.9052 20.2015L23.4447 22.0616C23.4017 22.235 23.5573 22.3922 23.7291 22.3488L25.5714 21.8838C25.7364 21.8421 25.887 21.756 26.0073 21.6346L31.6158 15.9717C31.8618 15.7233 32 15.3864 32 15.0351C32 14.6838 31.8618 14.3469 31.6158 14.0985C31.3697 13.8501 31.0361 13.7105 30.6881 13.7105Z" fill="white"/>
<defs>
<linearGradient id="paint0_linear_383_46924" x1="7" y1="-7.2948e-07" x2="36.5" y2="44" gradientUnits="userSpaceOnUse">
<stop stop-color="#FFC316"/>
<stop offset="1" stop-color="#EFB303"/>
</linearGradient>
</defs>
</svg>
