<svg width="193" height="192" viewBox="0 0 193 192" fill="none" xmlns="http://www.w3.org/2000/svg">
<path d="M112.93 148.673C111.965 158.245 101.638 165.043 89.8617 163.852C78.0852 162.661 69.3236 153.94 70.2942 144.367C71.2647 134.794 113.894 139.102 112.93 148.673Z" fill="#A7D8FE"/>
<path d="M146.542 126.432L144.987 126.276L144.267 94.6556C143.594 75.0565 134.542 59.9125 119.16 52.5191C120.078 49.8675 120.381 47.0411 120.044 44.2549C119.708 41.4686 118.741 38.7959 117.217 36.44C115.694 34.0841 113.654 32.1069 111.252 30.659C108.85 29.211 106.15 28.3304 103.358 28.084C100.565 27.8376 97.7528 28.2319 95.1352 29.2371C92.5176 30.2422 90.1634 31.8316 88.2516 33.8845C86.3399 35.9373 84.921 38.3995 84.1027 41.0839C83.2845 43.7682 83.0885 46.604 83.5297 49.3756C66.8863 54.0297 54.5838 67.4609 51.3903 85.2799L44.1895 116.101L41.8789 115.867C40.0843 115.686 38.2715 115.861 36.5443 116.381C34.817 116.901 33.209 117.757 31.812 118.899C30.4151 120.041 29.2566 121.448 28.4027 123.038C27.5488 124.629 27.0162 126.372 26.8354 128.169C26.6547 129.966 26.8296 131.781 27.35 133.51C27.8704 135.24 28.7262 136.85 29.8685 138.248C31.0107 139.646 32.417 140.806 34.0069 141.659C35.5969 142.513 37.3394 143.045 39.1348 143.225L143.793 153.793C147.417 154.159 151.039 153.069 153.86 150.762C156.682 148.455 158.472 145.121 158.838 141.493C159.019 139.696 158.845 137.881 158.324 136.151C157.804 134.421 156.949 132.811 155.807 131.413C154.665 130.014 153.259 128.854 151.669 128C150.08 127.145 148.337 126.613 146.542 126.432ZM106.324 43.076C106.289 43.2583 106.245 43.4388 106.192 43.6167C106.192 43.6355 106.176 43.6558 106.167 43.6746C106.01 43.9881 105.854 44.2858 105.674 44.5757C105.653 44.609 105.628 44.6404 105.602 44.6697C105.56 44.7152 105.132 45.1931 104.896 45.4109L104.85 45.4485C104.56 45.6643 104.253 45.8561 103.932 46.0221C103.894 46.0425 103.855 46.0598 103.814 46.0738H103.791C103.562 46.1459 103.082 46.2979 102.851 46.3621L102.82 46.3715L102.756 46.3841H102.69C102.336 46.4107 101.98 46.4201 101.624 46.4201C101.578 46.4201 101.533 46.4154 101.488 46.406H101.466C101.25 46.359 100.693 46.2258 100.478 46.171L100.445 46.1616L100.38 46.1396C100.356 46.1287 100.333 46.1177 100.311 46.1051C100.107 45.9986 99.6471 45.7479 99.4483 45.635L99.4326 45.6256L99.4029 45.6053C99.3807 45.5914 99.3598 45.5756 99.3403 45.5582L99.3105 45.5332C99.1305 45.3765 98.7814 45.0364 98.6077 44.8656L98.5904 44.8499C98.5511 44.8098 98.5155 44.7663 98.484 44.7199C98.2883 44.4284 98.0973 44.1322 97.9283 43.8251C97.9126 43.7969 97.8985 43.7671 97.886 43.7389C97.608 43.1319 97.4973 42.4616 97.5651 41.7973L97.7999 40.8148C98.038 40.2104 98.4285 39.6781 98.9333 39.2697L99.0585 39.1913C99.1476 39.071 99.246 38.9578 99.3528 38.8528C99.6555 38.4736 100.05 38.178 100.499 37.9941C100.942 37.7676 101.437 37.6627 101.934 37.6901C102.44 37.6282 102.953 37.7035 103.42 37.9079C103.465 37.9267 103.51 37.9471 103.554 37.969L103.615 38.0003C103.913 38.157 104.218 38.3138 104.509 38.4908C104.575 38.528 104.636 38.571 104.694 38.6193C104.961 38.8482 105.217 39.0903 105.459 39.3449C105.479 39.3657 105.498 39.3877 105.516 39.4107C105.716 39.6929 105.899 39.9864 106.065 40.2898C106.079 40.3116 106.09 40.3347 106.1 40.3588C106.405 41.0389 106.524 41.7877 106.447 42.5291C106.416 42.7135 106.375 42.8961 106.324 43.076Z" fill="#E2E9FC"/>
<path d="M146.543 126.434L144.988 126.277L144.268 94.6569C143.595 75.0578 134.542 59.9138 119.161 52.5204C120.683 48.1255 120.485 43.3161 118.606 39.0616C116.727 34.8072 113.306 31.4241 109.034 29.5944C109.532 32.028 113.261 34.8785 112.947 41.1154C112.373 52.4812 109.003 55.689 109.14 57.1103C109.217 57.9017 131.377 64.0696 129.242 101.229C128.722 110.277 127.694 122.983 119.976 128.339C129.405 134.752 130.287 145.152 121.365 151.532L143.794 153.796C147.418 154.162 151.039 153.072 153.861 150.765C156.682 148.458 158.473 145.124 158.839 141.496C159.02 139.699 158.846 137.883 158.326 136.153C157.806 134.424 156.95 132.813 155.808 131.414C154.666 130.016 153.26 128.856 151.671 128.001C150.081 127.147 148.338 126.614 146.543 126.434Z" fill="#D6DFF6"/>
<path d="M146.542 126.433L144.988 126.276L145.487 123.046C143.627 123.341 78.4202 122.324 45.2649 111.883L44.2114 116.02C54.9845 122.532 132.59 132.292 146.542 126.433Z" fill="#A7D8FE"/>
<path d="M61.2187 133.452C55.0651 128.991 46.997 127.571 40.2078 124.17C36.061 122.093 33.4218 128.898 37.5967 130.917C44.7052 134.353 53.2241 137.934 61.0512 135.113C61.7493 134.867 61.7713 133.86 61.2187 133.452Z" fill="#F2F6FF"/>
<path d="M144.297 56.1962C144.872 56.7604 145.429 57.3402 145.961 57.9451C146.245 58.2647 146.521 58.5902 146.788 58.9213C146.922 59.056 147.041 59.2047 147.143 59.3648C147.034 59.1345 146.805 58.9104 147.071 59.2818C148.051 60.6215 148.935 62.0285 149.717 63.4924C150.081 64.1851 150.52 64.9263 150.759 65.6722C150.676 65.4136 150.543 65.1378 150.709 65.5594C150.778 65.7365 150.848 65.912 150.916 66.089C151.068 66.4892 151.212 66.8908 151.348 67.2941C151.874 68.8676 152.278 70.479 152.558 72.1144C152.893 74.0591 155.376 75.3253 157.182 74.7423C159.277 74.0638 160.167 72.1974 159.809 70.1132C158.557 62.8531 154.87 56.0192 149.62 50.8745C148.211 49.4955 145.686 49.3654 144.297 50.8745C142.909 52.3836 142.795 54.7248 144.297 56.2025V56.1962Z" fill="#E0E8FF"/>
<path d="M156.465 54.5594C157.393 56.3103 158.322 58.0633 159.253 59.8184C159.685 60.6333 160.627 61.3071 161.501 61.5422C161.986 61.698 162.504 61.7213 163.001 61.6096C163.497 61.5871 163.979 61.433 164.397 61.163C165.2 60.6443 165.908 59.8733 166.119 58.9127C166.356 57.9328 166.221 56.8994 165.74 56.0136L162.957 50.7609C162.525 49.946 161.584 49.2722 160.71 49.0371C160.225 48.8813 159.708 48.858 159.211 48.9697C158.714 48.9924 158.231 49.1465 157.813 49.4163C157.01 49.935 156.304 50.706 156.091 51.6651C155.853 52.6456 155.989 53.6798 156.471 54.5657L156.465 54.5594Z" fill="#E0E8FF"/>
<path d="M44.3797 60.5081C44.7971 59.875 45.238 59.257 45.7024 58.6542L45.1138 59.4158C46.7068 57.3644 48.5471 55.5179 50.5927 53.9186L49.8304 54.5078C51.3334 53.3466 52.9382 52.3239 54.6252 51.4521C56.3769 50.5479 57.0344 47.9481 55.9746 46.3027C54.8225 44.5147 52.7029 43.9866 50.8307 44.9519C45.5772 47.6645 41.1408 51.7905 37.8832 56.7048C36.7874 58.3502 37.506 60.9359 39.2326 61.8542C41.1111 62.8524 43.2134 62.26 44.3765 60.5034L44.3797 60.5081Z" fill="#E0E8FF"/>
<path d="M38.358 49.6834L43.779 45.2502C44.1404 44.9212 44.4101 44.5038 44.5617 44.0389C44.7961 43.593 44.9079 43.0928 44.8858 42.5894C44.8858 41.6664 44.4756 40.5632 43.79 39.9254C43.0746 39.2672 42.1338 38.7783 41.1288 38.8285L40.1301 38.9632C39.5023 39.1361 38.9303 39.4699 38.4707 39.9317L33.0435 44.3555C32.6824 44.6848 32.4128 45.1021 32.2608 45.5668C32.0271 46.014 31.9163 46.5153 31.9399 47.0194C31.9399 47.9424 32.35 49.0456 33.0357 49.6834C33.7526 50.3416 34.6918 50.8305 35.6968 50.7804L36.6971 50.6456C37.3246 50.4742 37.8969 50.1427 38.358 49.6834Z" fill="#E0E8FF"/>
</svg>
