<svg width="45" height="44" viewBox="0 0 45 44" fill="none" xmlns="http://www.w3.org/2000/svg">
<path fill-rule="evenodd" clip-rule="evenodd" d="M40.299 4.60533C36.1337 0.469333 30.179 0 22.875 0C15.571 0 9.587 0.469333 5.451 4.60533C1.315 8.74133 0.875 14.7253 0.875 22.0293C0.875 29.3333 1.28567 35.288 5.451 39.4533C9.61633 43.6187 15.571 44 22.875 44C30.179 44 36.163 43.5893 40.299 39.424C44.435 35.2587 44.875 29.304 44.875 22C44.875 14.696 44.435 8.74133 40.299 4.60533Z" fill="url(#paint0_linear_62_31381)"/>
<path d="M31.6251 18.2246H31.0676V24.3531C31.0676 25.3073 30.512 26.1701 29.3982 26.1701H18.4861V26.4615C18.4861 27.3051 19.4456 28.1567 20.4309 28.1567H28.7738L31.9655 30.0333L31.5026 28.1567H31.6251C32.6098 28.1567 33.0541 27.3071 33.0541 26.4615V19.6794C33.0541 18.8358 32.6098 18.2246 31.6251 18.2246Z" fill="white"/>
<path d="M27.7684 13.9667H15.0942C13.9791 13.9667 12.6958 14.9573 12.6958 15.9122V23.5935C12.6958 24.4729 13.7831 25.1079 14.826 25.2059L14.1473 27.7825L18.4965 25.2238H27.7684C28.8836 25.2238 29.9126 24.5477 29.9126 23.5935V17.3789V15.9122C29.9126 14.9573 28.8829 13.9667 27.7684 13.9667ZM17.0278 20.4508C16.3954 20.4508 15.8829 19.9383 15.8829 19.3059C15.8829 18.6735 16.3954 18.161 17.0278 18.161C17.6595 18.161 18.1727 18.6735 18.1727 19.3059C18.1727 19.9383 17.6595 20.4508 17.0278 20.4508ZM21.3042 20.4508C20.6718 20.4508 20.1593 19.9383 20.1593 19.3059C20.1593 18.6735 20.6718 18.161 21.3042 18.161C21.9366 18.161 22.4491 18.6735 22.4491 19.3059C22.4491 19.9383 21.9366 20.4508 21.3042 20.4508ZM25.5812 20.4508C24.9489 20.4508 24.4357 19.9383 24.4357 19.3059C24.4357 18.6735 24.9489 18.161 25.5812 18.161C26.2123 18.161 26.7262 18.6735 26.7262 19.3059C26.7262 19.9383 26.2123 20.4508 25.5812 20.4508Z" fill="white"/>
<defs>
<linearGradient id="paint0_linear_62_31381" x1="22.875" y1="0" x2="22.875" y2="44" gradientUnits="userSpaceOnUse">
<stop stop-color="#F2994A" stop-opacity="0.82"/>
<stop offset="1" stop-color="#EB8D3A"/>
</linearGradient>
</defs>
</svg>
