<svg width="44" height="44" viewBox="0 0 44 44" fill="none" xmlns="http://www.w3.org/2000/svg">
<path fill-rule="evenodd" clip-rule="evenodd" d="M39.424 4.60533C35.2587 0.469333 29.304 0 22 0C14.696 0 8.712 0.469333 4.576 4.60533C0.440001 8.74133 0 14.7253 0 22.0293C0 29.3333 0.410668 35.288 4.576 39.4533C8.74133 43.6187 14.696 44 22 44C29.304 44 35.288 43.5893 39.424 39.424C43.56 35.2587 44 29.304 44 22C44 14.696 43.56 8.74133 39.424 4.60533Z" fill="#FEBD00"/>
<path fill-rule="evenodd" clip-rule="evenodd" d="M15.1934 12.1367C14.3649 12.1367 13.6934 12.8083 13.6934 13.6367V30.3629C13.6934 31.1914 14.3649 31.8629 15.1934 31.8629H28.8049C29.6333 31.8629 30.3049 31.1914 30.3049 30.3629V13.6367C30.3049 12.8083 29.6333 12.1367 28.8049 12.1367H15.1934ZM20.0213 17.1431C20.0213 18.2354 20.9067 19.1208 21.999 19.1208C23.0912 19.1208 23.9767 18.2354 23.9767 17.1431C23.9767 16.0508 23.0912 15.1654 21.999 15.1654C20.9067 15.1654 20.0213 16.0508 20.0213 17.1431ZM21.6143 19.7304H22.384C24.0608 19.7304 25.4201 21.0897 25.4201 22.7665C25.4201 23.0086 25.2238 23.2048 24.9818 23.2048H19.0166C18.7745 23.2048 18.5783 23.0086 18.5783 22.7665C18.5783 21.0897 19.9375 19.7304 21.6143 19.7304ZM17.3531 25.3421C17.0493 25.3421 16.8031 25.5884 16.8031 25.8921C16.8031 26.1959 17.0493 26.4421 17.3531 26.4421H26.6452C26.949 26.4421 27.1952 26.1959 27.1952 25.8921C27.1952 25.5884 26.949 25.3421 26.6452 25.3421H17.3531ZM19.064 28.3969H24.9343C25.2381 28.3969 25.4843 28.1506 25.4843 27.8469C25.4843 27.5431 25.2381 27.2969 24.9343 27.2969H19.064C18.7602 27.2969 18.514 27.5431 18.514 27.8469C18.514 28.1506 18.7602 28.3969 19.064 28.3969Z" fill="white"/>
</svg>
