<svg xmlns="http://www.w3.org/2000/svg" version="1.1" xmlns:xlink="http://www.w3.org/1999/xlink" xmlns:svgjs="http://svgjs.com/svgjs" width="512" height="512" x="0" y="0" viewBox="0 0 512 512" style="enable-background:new 0 0 512 512" xml:space="preserve" class=""><g><g><path d="m344.356 31.525-25.207-2.598-27.742 17.347 67.932 33.452c4.057 1.998 8.907 1.442 12.407-1.422 5.196-4.252 5.681-12.024 1.053-16.888z" fill="#FFB09E" data-original="#ffb09e" class=""></path><path d="m267.35 361.821c-7.099-2.621-9.203-11.648-3.995-17.137l41.457-43.694-51.254-48.63-39.278 41.398c-7.282 7.675-19.406 7.993-27.081.711-2.535-2.405-4.364-5.459-5.289-8.829l-32.296-117.738c-1.348-4.915.669-10.134 4.972-12.864l164.579-104.433c2.293-1.455 4.903-2.337 7.609-2.57l79.753-6.886c5.464-.472 10.233-4.233 11.553-9.556 1.815-7.318-3.14-14.557-10.583-15.541l-88.794-11.748c-7.889-1.044-15.905.459-22.88 4.289l-202.889 111.398c-9.387 5.154-14.734 15.465-13.538 26.107l17.074 151.903c.48 4.269-.95 8.532-3.907 11.648l-69.7 73.461 217.143 98.575 188.952-32.065 27.43-18.013z" fill="#FFCEBF" data-original="#ffcebf" class=""></path><path d="m263.355 344.684 41.457-43.694-11.052-10.486-55.363 54.18c-5.209 5.49-3.104 14.517 3.995 17.137l199.512 79.297 14.484-9.512-189.038-69.785c-7.099-2.62-9.203-11.647-3.995-17.137z" fill="#FFB09E" data-original="#ffb09e" class=""></path><path d="m399.188 19.885c-1.32 5.323-6.089 9.085-11.553 9.556l-79.753 6.886c-2.706.234-5.316 1.115-7.609 2.57l-164.578 104.434c-4.303 2.73-6.32 7.949-4.972 12.864l38.516 142.126c.924 3.37 2.753 6.423 5.289 8.829 7.675 7.282 19.799 6.963 27.081-.711l9.476-9.987c-7.283 4.917-17.246 4.317-23.885-1.982-2.535-2.405-4.364-5.459-5.289-8.829l-32.296-117.738c-1.348-4.915.669-10.134 4.972-12.864l164.578-104.434c2.293-1.455 4.903-2.337 7.609-2.57l79.753-6.886c5.464-.472 10.233-4.233 11.553-9.556 1.815-7.318-3.14-14.557-10.583-15.541l-8.086-1.07c.237 1.582.19 3.238-.223 4.903z" fill="#FFB09E" data-original="#ffb09e" class=""></path><g fill="#FFCEBF"><path d="m382.919 276.423-31.184 32.867 23.444 22.244c6.032 5.723 15.562 5.473 21.286-.559l10.457-11.022c5.723-6.032 5.473-15.562-.559-21.286z" fill="#FFCEBF" data-original="#ffcebf" class=""></path><path d="m273.989 173.071-31.184 32.867-23.444-22.244c-6.032-5.723-6.283-15.253-.559-21.286l10.457-11.022c5.723-6.032 15.253-6.283 21.286-.559z" fill="#FFCEBF" data-original="#ffcebf" class=""></path><path d="m419.52 247.417-41.477-79.506-81.605-37.275s-11.659 12.288-25.754 27.143c-1.983 2.09.985 7.232-1.069 9.397-1.513 1.595-8.039.203-9.567 1.813-9.979 10.518-20.041 21.122-27.32 28.794-12.296 12.959-2.424 69.264 6.249 84.882 7.139 12.856 23.124 28.022 36.337 34.477 16.052 7.841 69.83 8.226 82.126-4.734 8.314-8.763 14.66-14.486 23.956-24.285 1.536-1.619 7.392-5.219 8.898-6.806 2.067-2.178 4.083-11.178 6.056-13.257 14.419-15.197 23.17-20.643 23.17-20.643z" fill="#FFCEBF" data-original="#ffcebf" class=""></path></g><path d="m345.638 304.157c-12.296 12.959-69.041 6.058-85.093-1.783-4.732-2.311-9.816-5.751-14.725-9.791 8.126 9.987 19.588 19.721 29.493 24.559 16.052 7.841 72.797 14.743 85.093 1.783 8.314-8.763 18.024-18.996 27.32-28.794 1.605-1.691-6.803-13.37-5.232-15.025 1.997-2.105 13.96 5.827 15.868 3.815 14.42-15.198 25.754-27.143 25.754-27.143l-15.146-14.37c-21.065 22.201-42.28 44.562-63.332 66.749z" fill="#FFB09E" data-original="#ffb09e" class=""></path><path d="m296.438 130.636 6.149-6.481c31.254-32.94 83.293-34.307 116.234-3.054l8.391 7.962c32.94 31.254 34.307 83.293 3.054 116.234l-6.149 6.481z" fill="#C8EFFE" data-original="#c8effe" class=""></path><path d="m427.212 129.063-8.34-7.913c26.527 31.591 25.694 78.741-3.375 109.379-2.171 2.288-4.352 4.587-6.526 6.878l15.146 14.37 6.149-6.481c31.253-32.939 29.886-84.979-3.054-116.233z" fill="#99E6FC" data-original="#99e6fc" class=""></path><path d="m260.048 168.989 127.678 121.142c3.646-3.842 7.226-7.617 10.636-11.21l-127.678-121.142c-3.445 3.631-7.034 7.415-10.636 11.21z" fill="#6E61B6" data-original="#6e61b6" class=""></path><path d="m283.229 180.333c-7.349 7.746-7.028 19.983.718 27.332l7.435 7.054c7.746 7.349 19.983 7.028 27.332-.718s7.028-19.983-.718-27.332l-7.435-7.054c-7.746-7.35-19.983-7.028-27.332.718z" fill="#62DBFB" data-original="#62dbfb" class=""></path><path d="m339.697 233.91c-7.349 7.746-7.028 19.983.718 27.332l7.435 7.054c7.746 7.349 19.983 7.028 27.332-.718s7.028-19.983-.718-27.332l-7.435-7.054c-7.745-7.349-19.983-7.028-27.332.718z" fill="#62DBFB" data-original="#62dbfb" class=""></path><path d="m304.682 227.74c-6.692 0-13.392-2.459-18.618-7.416l-7.435-7.054c-10.823-10.271-11.274-27.432-1.005-38.256 4.975-5.243 11.694-8.236 18.92-8.426 7.229-.198 14.093 2.446 19.336 7.421l7.434 7.053c5.243 4.975 8.236 11.694 8.426 18.92.19 7.225-2.445 14.093-7.42 19.336-5.313 5.599-12.47 8.422-19.638 8.422zm-7.42-45.708c-.104 0-.208.001-.312.004-3.1.081-5.981 1.365-8.115 3.614-4.405 4.643-4.212 12.005.431 16.41l7.434 7.053c4.643 4.405 12.004 4.212 16.409-.431 2.134-2.249 3.265-5.195 3.183-8.294-.081-3.1-1.365-5.981-3.614-8.115l-7.435-7.054c-2.174-2.062-4.997-3.187-7.981-3.187z" fill="#6E61B6" data-original="#6e61b6" class=""></path><path d="m361.138 281.331c-6.958 0-13.54-2.623-18.607-7.43l-7.435-7.054c-10.824-10.27-11.275-27.431-1.005-38.255 4.975-5.243 11.694-8.236 18.92-8.426 7.224-.197 14.093 2.446 19.336 7.42l7.435 7.054c10.824 10.27 11.275 27.432 1.006 38.256-4.975 5.243-11.695 8.236-18.92 8.426-.244.006-.487.009-.73.009zm-7.408-45.721c-.104 0-.208.002-.313.004-3.1.081-5.981 1.365-8.115 3.614-4.405 4.643-4.212 12.004.431 16.409l7.435 7.054c4.643 4.405 12.004 4.211 16.409-.431 4.405-4.643 4.212-12.005-.431-16.41l-7.435-7.053c-2.173-2.062-4.997-3.187-7.981-3.187z" fill="#6E61B6" data-original="#6e61b6" class=""></path><path d="m303.161 281.067c-1.104 0-2.224-.237-3.288-.739-11.076-5.219-19.63-13.335-25.423-24.121-2.019-3.759-.608-8.444 3.151-10.462 3.759-2.019 8.443-.608 10.462 3.151 4.251 7.914 10.268 13.624 18.395 17.453 3.86 1.819 5.515 6.423 3.696 10.283-1.316 2.796-4.095 4.435-6.993 4.435z" fill="#F89580" data-original="#f89580" class=""></path><path d="m469.327 368.026c-21.337 0-21.337-12.433-42.673-12.433-21.334 0-21.334 12.433-42.667 12.433-21.334 0-21.334-12.433-42.668-12.433-21.333 0-21.333 12.433-42.667 12.433-21.333 0-21.333-12.433-42.666-12.433-21.33 0-21.33 12.433-42.661 12.433-21.333 0-21.333-12.433-42.665-12.433-21.333 0-21.333 12.433-42.667 12.433-21.333 0-21.333-12.433-42.666-12.433-21.332 0-21.332 12.433-42.664 12.433-21.331 0-21.331-12.433-42.663-12.433v139.993c21.331 0 21.331 12.433 42.663 12.433s21.332-12.433 42.664-12.433c21.333 0 21.333 12.433 42.666 12.433s21.333-12.433 42.667-12.433c21.333 0 21.333 12.433 42.665 12.433 21.33 0 21.33-12.433 42.661-12.433 21.333 0 21.333 12.433 42.666 12.433s21.333-12.433 42.667-12.433 21.334 12.433 42.668 12.433 21.334-12.433 42.667-12.433c21.336 0 21.336 12.433 42.673 12.433 21.336 0 21.336-12.433 42.673-12.433v-139.993c-21.337 0-21.337 12.433-42.673 12.433z" fill="#62DBFB" data-original="#62dbfb" class=""></path><path d="m491.396 361.384v139.993c5.101-2.96 10.423-5.79 20.604-5.79v-139.994c-10.18 0-15.503 2.831-20.604 5.791z" fill="#01C0FA" data-original="#01c0fa" class=""></path><g fill="#01C0FA"><path d="m512 441.714c-8.224 1.154-13.392 4.059-18.058 6.698-5.151 2.914-9.22 5.215-18.177 5.215s-13.026-2.301-18.177-5.215c-5.981-3.383-12.761-7.217-25.784-7.217s-19.801 3.835-25.782 7.218c-5.15 2.913-9.218 5.215-18.173 5.215s-13.024-2.301-18.174-5.215c-5.981-3.383-12.76-7.218-25.782-7.218-13.023 0-19.801 3.835-25.782 7.218-5.15 2.913-9.218 5.215-18.173 5.215s-13.022-2.301-18.173-5.215c-5.98-3.383-12.759-7.218-25.781-7.218s-19.799 3.835-25.779 7.218c-5.149 2.913-9.216 5.214-18.169 5.214-8.954 0-13.022-2.301-18.173-5.215-5.98-3.383-12.759-7.218-25.781-7.218-13.023 0-19.801 3.835-25.782 7.218-5.15 2.913-9.218 5.215-18.173 5.215-8.954 0-13.022-2.301-18.173-5.215-5.98-3.383-12.759-7.218-25.781-7.218s-19.8 3.835-25.78 7.218c-5.15 2.913-9.217 5.215-18.171 5.215s-13.021-2.301-18.171-5.215c-4.665-2.639-9.831-5.545-18.053-6.699v15.684c4.139.907 7.063 2.551 10.445 4.465 5.98 3.383 12.758 7.218 25.78 7.218s19.8-3.835 25.78-7.218c5.15-2.913 9.218-5.215 18.172-5.215s13.022 2.301 18.173 5.215c5.98 3.383 12.759 7.218 25.781 7.218s19.801-3.835 25.782-7.218c5.15-2.913 9.218-5.215 18.173-5.215 8.954 0 13.022 2.301 18.172 5.215 5.98 3.383 12.759 7.218 25.781 7.218 13.021 0 19.799-3.835 25.779-7.218 5.149-2.913 9.216-5.215 18.17-5.215s13.022 2.301 18.173 5.215c5.98 3.383 12.759 7.218 25.781 7.218s19.801-3.835 25.781-7.218c5.15-2.913 9.218-5.215 18.173-5.215s13.023 2.301 18.174 5.215c5.981 3.383 12.76 7.218 25.783 7.218s19.801-3.835 25.782-7.218c5.15-2.913 9.218-5.215 18.173-5.215 8.956 0 13.025 2.301 18.177 5.215 5.981 3.383 12.761 7.217 25.785 7.217s19.803-3.835 25.784-7.217c3.384-1.914 6.309-3.559 10.45-4.466v-15.682z" fill="#01C0FA" data-original="#01c0fa" class=""></path><path d="m0 410.734c4.139.907 7.062 2.551 10.444 4.465 5.98 3.383 12.759 7.218 25.78 7.218s19.8-3.835 25.78-7.218c5.149-2.913 9.217-5.215 18.171-5.215s13.022 2.301 18.173 5.215c5.98 3.383 12.759 7.218 25.781 7.218s19.801-3.835 25.782-7.218c5.15-2.914 9.218-5.215 18.173-5.215 8.954 0 13.022 2.301 18.172 5.215 5.98 3.383 12.759 7.218 25.781 7.218 13.021 0 19.799-3.835 25.779-7.218 5.149-2.913 9.217-5.215 18.17-5.215 8.954 0 13.022 2.301 18.173 5.215 5.98 3.383 12.759 7.218 25.781 7.218 13.023 0 19.801-3.835 25.781-7.218 5.15-2.914 9.218-5.215 18.173-5.215s13.023 2.301 18.174 5.215c5.981 3.383 12.76 7.218 25.783 7.218s19.801-3.835 25.782-7.218c5.15-2.914 9.218-5.215 18.173-5.215 8.956 0 13.025 2.301 18.177 5.215 5.981 3.383 12.761 7.218 25.785 7.218s19.803-3.835 25.784-7.218c3.384-1.914 6.309-3.559 10.45-4.466v-15.683c-8.225 1.154-13.392 4.059-18.058 6.699-5.151 2.914-9.22 5.215-18.177 5.215s-13.026-2.301-18.177-5.215c-5.981-3.383-12.76-7.218-25.784-7.218-13.023 0-19.801 3.835-25.782 7.218-5.15 2.913-9.218 5.215-18.173 5.215s-13.024-2.301-18.174-5.215c-5.981-3.383-12.76-7.218-25.782-7.218-13.023 0-19.801 3.835-25.782 7.218-5.15 2.913-9.218 5.215-18.173 5.215s-13.022-2.301-18.173-5.215c-5.98-3.383-12.759-7.218-25.781-7.218s-19.799 3.835-25.779 7.218c-5.149 2.913-9.216 5.215-18.169 5.215-8.954 0-13.022-2.301-18.173-5.215-5.98-3.383-12.759-7.218-25.781-7.218-13.023 0-19.801 3.835-25.782 7.218-5.15 2.913-9.218 5.215-18.173 5.215-8.954 0-13.022-2.301-18.173-5.215-5.98-3.383-12.759-7.218-25.781-7.218s-19.8 3.835-25.781 7.218c-5.149 2.913-9.217 5.215-18.171 5.215s-13.021-2.301-18.171-5.215c-4.664-2.639-9.83-5.545-18.052-6.699z" fill="#01C0FA" data-original="#01c0fa" class=""></path></g><g fill="#08A9F1"><path d="m491.396 420.042c4.023-1.377 7.188-3.165 10.153-4.842 3.384-1.914 6.309-3.559 10.45-4.466v-15.684c-8.225 1.154-13.392 4.059-18.058 6.699-.87.492-1.709.965-2.546 1.414v16.879z" fill="#08A9F1" data-original="#08a9f1"></path><path d="m512 457.398v-15.684c-8.224 1.154-13.392 4.059-18.058 6.698-.87.492-1.709.965-2.546 1.414v16.879c4.023-1.377 7.188-3.164 10.153-4.842 3.385-1.913 6.309-3.558 10.451-4.465z" fill="#08A9F1" data-original="#08a9f1"></path></g><path d="m398.363 278.921-13.08-12.41c1.068-2.109 1.849-4.325 2.329-6.592-1.465 1.544-2.93 3.088-4.394 4.632-3.546 3.738-7.09 7.473-10.636 11.21-1.471 1.55-2.942 3.101-4.413 4.651 2.275-.606 4.449-1.513 6.483-2.686l13.075 12.406c3.645-3.843 7.226-7.617 10.636-11.211z" fill="#4F66D0" data-original="#4f66d0"></path></g></g></svg>