<svg width="44" height="44" viewBox="0 0 44 44" fill="none" xmlns="http://www.w3.org/2000/svg">
<path fill-rule="evenodd" clip-rule="evenodd" d="M39.424 4.60533C35.2587 0.469333 29.304 0 22 0C14.696 0 8.712 0.469333 4.576 4.60533C0.440001 8.74133 0 14.7253 0 22.0293C0 29.3333 0.410668 35.288 4.576 39.4533C8.74133 43.6187 14.696 44 22 44C29.304 44 35.288 43.5893 39.424 39.424C43.56 35.2587 44 29.304 44 22C44 14.696 43.56 8.74133 39.424 4.60533Z" fill="#FF7C59"/>
<path d="M26.8769 14.685H28.4009C29.0742 14.6858 29.7198 14.9537 30.1959 15.4298C30.6721 15.906 30.94 16.5515 30.9408 17.2249V19.5617H13.0596V17.2249C13.0604 16.5515 13.3283 15.906 13.8045 15.4298C14.2806 14.9537 14.9261 14.6858 15.5995 14.685H17.1235V13.8722C17.1235 13.6566 17.2091 13.4499 17.3615 13.2974C17.514 13.145 17.7207 13.0594 17.9363 13.0594C18.1518 13.0594 18.3586 13.145 18.511 13.2974C18.6634 13.4499 18.7491 13.6566 18.7491 13.8722V14.685H21.1874H22.813H25.2513V13.8722C25.2513 13.6566 25.337 13.4499 25.4894 13.2974C25.6418 13.145 25.8485 13.0594 26.0641 13.0594C26.2797 13.0594 26.4864 13.145 26.6388 13.2974C26.7913 13.4499 26.8769 13.6566 26.8769 13.8722V14.685Z" fill="white"/>
<path d="M13.0596 28.4006C13.0604 29.074 13.3283 29.7195 13.8045 30.1957C14.2806 30.6718 14.9261 30.9397 15.5995 30.9405H28.4009C29.0742 30.9397 29.7198 30.6718 30.1959 30.1957C30.6721 29.7195 30.94 29.074 30.9408 28.4006V21.1871H13.0596V28.4006ZM18.9872 25.1348C19.1396 24.9825 19.3463 24.8969 19.5618 24.8969C19.7774 24.8969 19.9841 24.9825 20.1365 25.1348L21.1874 26.1849L23.8639 23.5093C24.0172 23.3612 24.2225 23.2793 24.4356 23.2811C24.6487 23.283 24.8526 23.3685 25.0033 23.5192C25.154 23.6699 25.2395 23.8737 25.2413 24.0868C25.2432 24.2999 25.1612 24.5052 25.0132 24.6585L21.762 27.9097C21.6096 28.062 21.4029 28.1476 21.1874 28.1476C20.9719 28.1476 20.7652 28.062 20.6128 27.9097L18.9872 26.2841C18.8348 26.1317 18.7492 25.925 18.7492 25.7095C18.7492 25.4939 18.8348 25.2872 18.9872 25.1348V25.1348Z" fill="white"/>
</svg>
